<svg width="131" height="56" viewBox="0 0 131 56" fill="none" xmlns="http://www.w3.org/2000/svg">
<rect width="131" height="56" rx="13" fill="white"/>
<path d="M53.8672 20.8984H51.9141C51.888 20.6979 51.8346 20.5169 51.7539 20.3555C51.6732 20.194 51.5664 20.056 51.4336 19.9414C51.3008 19.8268 51.1432 19.7396 50.9609 19.6797C50.7813 19.6172 50.582 19.5859 50.3633 19.5859C49.9753 19.5859 49.6406 19.681 49.3594 19.8711C49.0807 20.0612 48.8659 20.3359 48.7148 20.6953C48.5664 21.0547 48.4922 21.4896 48.4922 22C48.4922 22.5312 48.5677 22.9766 48.7188 23.3359C48.8724 23.6927 49.0872 23.9622 49.3633 24.1445C49.6419 24.3242 49.9714 24.4141 50.3516 24.4141C50.5651 24.4141 50.7591 24.3867 50.9336 24.332C51.1107 24.2773 51.2656 24.1979 51.3984 24.0938C51.5339 23.987 51.6445 23.8581 51.7305 23.707C51.819 23.5534 51.8802 23.3802 51.9141 23.1875L53.8672 23.1992C53.8333 23.5534 53.7305 23.9023 53.5586 24.2461C53.3893 24.5898 53.1563 24.9036 52.8594 25.1875C52.5625 25.4687 52.2005 25.6927 51.7734 25.8594C51.349 26.026 50.862 26.1094 50.3125 26.1094C49.5885 26.1094 48.9401 25.9505 48.3672 25.6328C47.7969 25.3125 47.3464 24.8464 47.0156 24.2344C46.6849 23.6224 46.5195 22.8776 46.5195 22C46.5195 21.1198 46.6875 20.3737 47.0234 19.7617C47.3594 19.1497 47.8138 18.6849 48.3867 18.3672C48.9596 18.0495 49.6016 17.8906 50.3125 17.8906C50.7969 17.8906 51.2448 17.9583 51.6563 18.0938C52.0677 18.2266 52.4297 18.4219 52.7422 18.6797C53.0547 18.9349 53.3086 19.2487 53.5039 19.6211C53.6992 19.9935 53.8203 20.4193 53.8672 20.8984ZM56.1 26H54.0219L56.7211 18H59.2953L61.9945 26H59.9164L58.0375 20.0156H57.975L56.1 26ZM55.8227 22.8516H60.1664V24.3203H55.8227V22.8516ZM62.4559 26V18H64.3895V24.4297H67.7176V26H62.4559ZM68.3186 26V18H73.8967V19.5703H70.2521V21.2109H73.6115V22.7852H70.2521V24.4297H73.8967V26H68.3186ZM81.5162 18V26H79.8756L76.692 21.3828H76.6412V26H74.7076V18H76.3717L79.5201 22.6094H79.5865V18H81.5162ZM85.2891 26H82.332V18H85.2852C86.1003 18 86.8021 18.1602 87.3906 18.4805C87.9818 18.7982 88.4375 19.2565 88.7578 19.8555C89.0781 20.4518 89.2383 21.1654 89.2383 21.9961C89.2383 22.8294 89.0781 23.5456 88.7578 24.1445C88.4401 24.7435 87.9857 25.2031 87.3945 25.5234C86.8034 25.8411 86.1016 26 85.2891 26ZM84.2656 24.3516H85.2148C85.6628 24.3516 86.0417 24.276 86.3516 24.125C86.6641 23.9714 86.8997 23.7227 87.0586 23.3789C87.2201 23.0326 87.3008 22.5716 87.3008 21.9961C87.3008 21.4206 87.2201 20.9622 87.0586 20.6211C86.8971 20.2773 86.6589 20.0299 86.3438 19.8789C86.0313 19.7253 85.6458 19.6484 85.1875 19.6484H84.2656V24.3516ZM91.225 26H89.1469L91.8461 18H94.4203L97.1195 26H95.0414L93.1625 20.0156H93.1L91.225 26ZM90.9477 22.8516H95.2914V24.3203H90.9477V22.8516ZM92.475 17.2383L93.2641 15.4766H94.9555L93.7758 17.2383H92.475ZM97.5809 26V18H100.886C101.485 18 102.001 18.1081 102.436 18.3242C102.874 18.5378 103.211 18.8451 103.448 19.2461C103.685 19.6445 103.804 20.1172 103.804 20.6641C103.804 21.2187 103.682 21.6901 103.44 22.0781C103.198 22.4635 102.854 22.7578 102.409 22.9609C101.964 23.1615 101.436 23.2617 100.827 23.2617H98.7371V21.7383H100.468C100.759 21.7383 101.003 21.7005 101.198 21.625C101.396 21.5469 101.546 21.4297 101.647 21.2734C101.749 21.1146 101.8 20.9115 101.8 20.6641C101.8 20.4167 101.749 20.2122 101.647 20.0508C101.546 19.8867 101.396 19.7643 101.198 19.6836C101 19.6003 100.757 19.5586 100.468 19.5586H99.5145V26H97.5809ZM102.085 22.3437L104.077 26H101.968L100.014 22.3437H102.085ZM106.398 18V26H104.464V18H106.398ZM114.762 22C114.762 22.8802 114.593 23.6263 114.254 24.2383C113.916 24.8503 113.458 25.3151 112.879 25.6328C112.304 25.9505 111.658 26.1094 110.942 26.1094C110.223 26.1094 109.576 25.9492 109.001 25.6289C108.425 25.3086 107.968 24.8437 107.629 24.2344C107.294 23.6224 107.126 22.8776 107.126 22C107.126 21.1198 107.294 20.3737 107.629 19.7617C107.968 19.1497 108.425 18.6849 109.001 18.3672C109.576 18.0495 110.223 17.8906 110.942 17.8906C111.658 17.8906 112.304 18.0495 112.879 18.3672C113.458 18.6849 113.916 19.1497 114.254 19.7617C114.593 20.3737 114.762 21.1198 114.762 22ZM112.786 22C112.786 21.4792 112.712 21.0391 112.563 20.6797C112.417 20.3203 112.206 20.0482 111.93 19.8633C111.657 19.6784 111.327 19.5859 110.942 19.5859C110.559 19.5859 110.23 19.6784 109.954 19.8633C109.678 20.0482 109.465 20.3203 109.317 20.6797C109.171 21.0391 109.098 21.4792 109.098 22C109.098 22.5208 109.171 22.9609 109.317 23.3203C109.465 23.6797 109.678 23.9518 109.954 24.1367C110.23 24.3216 110.559 24.4141 110.942 24.4141C111.327 24.4141 111.657 24.3216 111.93 24.1367C112.206 23.9518 112.417 23.6797 112.563 23.3203C112.712 22.9609 112.786 22.5208 112.786 22ZM48.3359 39H46.2578L48.957 31H51.5313L54.2305 39H52.1523L50.2734 33.0156H50.2109L48.3359 39ZM48.0586 35.8516H52.4023V37.3203H48.0586V35.8516ZM61.5775 33.8984H59.6244C59.5984 33.6979 59.545 33.5169 59.4643 33.3555C59.3835 33.194 59.2768 33.056 59.1439 32.9414C59.0111 32.8268 58.8536 32.7396 58.6713 32.6797C58.4916 32.6172 58.2924 32.5859 58.0736 32.5859C57.6856 32.5859 57.351 32.681 57.0697 32.8711C56.7911 33.0612 56.5762 33.3359 56.4252 33.6953C56.2768 34.0547 56.2025 34.4896 56.2025 35C56.2025 35.5312 56.2781 35.9766 56.4291 36.3359C56.5827 36.6927 56.7976 36.9622 57.0736 37.1445C57.3523 37.3242 57.6817 37.4141 58.0619 37.4141C58.2755 37.4141 58.4695 37.3867 58.6439 37.332C58.821 37.2773 58.976 37.1979 59.1088 37.0938C59.2442 36.987 59.3549 36.8581 59.4408 36.707C59.5294 36.5534 59.5906 36.3802 59.6244 36.1875L61.5775 36.1992C61.5437 36.5534 61.4408 36.9023 61.2689 37.2461C61.0997 37.5898 60.8666 37.9036 60.5697 38.1875C60.2729 38.4687 59.9109 38.6927 59.4838 38.8594C59.0593 39.026 58.5723 39.1094 58.0229 39.1094C57.2989 39.1094 56.6505 38.9505 56.0775 38.6328C55.5072 38.3125 55.0567 37.8464 54.726 37.2344C54.3952 36.6224 54.2299 35.8776 54.2299 35C54.2299 34.1198 54.3979 33.3737 54.7338 32.7617C55.0697 32.1497 55.5242 31.6849 56.0971 31.3672C56.67 31.0495 57.3119 30.8906 58.0229 30.8906C58.5072 30.8906 58.9551 30.9583 59.3666 31.0938C59.7781 31.2266 60.14 31.4219 60.4525 31.6797C60.765 31.9349 61.0189 32.2487 61.2143 32.6211C61.4096 32.9935 61.5307 33.4193 61.5775 33.8984ZM63.8104 39H61.7322L64.4314 31H67.0057L69.7049 39H67.6268L65.7479 33.0156H65.6854L63.8104 39ZM63.533 35.8516H67.8768V37.3203H63.533V35.8516ZM73.1232 39H70.1662V31H73.1193C73.9344 31 74.6363 31.1602 75.2248 31.4805C75.8159 31.7982 76.2717 32.2565 76.592 32.8555C76.9123 33.4518 77.0725 34.1654 77.0725 34.9961C77.0725 35.8294 76.9123 36.5456 76.592 37.1445C76.2743 37.7435 75.8199 38.2031 75.2287 38.5234C74.6376 38.8411 73.9357 39 73.1232 39ZM72.0998 37.3516H73.049C73.4969 37.3516 73.8758 37.276 74.1857 37.125C74.4982 36.9714 74.7339 36.7227 74.8928 36.3789C75.0542 36.0326 75.135 35.5716 75.135 34.9961C75.135 34.4206 75.0542 33.9622 74.8928 33.6211C74.7313 33.2773 74.493 33.0299 74.1779 32.8789C73.8654 32.7253 73.48 32.6484 73.0217 32.6484H72.0998V37.3516ZM77.8014 39V31H83.3795V32.5703H79.735V34.2109H83.0943V35.7852H79.735V37.4297H83.3795V39H77.8014ZM81.3834 30.2812L80.6061 29.375L79.8326 30.2812H78.2311V30.2305L79.9225 28.4805H81.2936L82.9811 30.2305V30.2812H81.3834ZM84.1904 31H86.585L88.6162 35.9531H88.71L90.7412 31H93.1357V39H91.2529V34.0859H91.1865L89.2646 38.9492H88.0615L86.1396 34.0586H86.0732V39H84.1904V31ZM95.8754 31V39H93.9418V31H95.8754ZM103.951 33.8984H101.998C101.972 33.6979 101.918 33.5169 101.838 33.3555C101.757 33.194 101.65 33.056 101.517 32.9414C101.385 32.8268 101.227 32.7396 101.045 32.6797C100.865 32.6172 100.666 32.5859 100.447 32.5859C100.059 32.5859 99.7244 32.681 99.4432 32.8711C99.1645 33.0612 98.9497 33.3359 98.7986 33.6953C98.6502 34.0547 98.576 34.4896 98.576 35C98.576 35.5312 98.6515 35.9766 98.8025 36.3359C98.9562 36.6927 99.171 36.9622 99.4471 37.1445C99.7257 37.3242 100.055 37.4141 100.435 37.4141C100.649 37.4141 100.843 37.3867 101.017 37.332C101.194 37.2773 101.349 37.1979 101.482 37.0938C101.618 36.987 101.728 36.8581 101.814 36.707C101.903 36.5534 101.964 36.3802 101.998 36.1875L103.951 36.1992C103.917 36.5534 103.814 36.9023 103.642 37.2461C103.473 37.5898 103.24 37.9036 102.943 38.1875C102.646 38.4687 102.284 38.6927 101.857 38.8594C101.433 39.026 100.946 39.1094 100.396 39.1094C99.6723 39.1094 99.0239 38.9505 98.451 38.6328C97.8807 38.3125 97.4301 37.8464 97.0994 37.2344C96.7687 36.6224 96.6033 35.8776 96.6033 35C96.6033 34.1198 96.7713 33.3737 97.1072 32.7617C97.4432 32.1497 97.8976 31.6849 98.4705 31.3672C99.0434 31.0495 99.6854 30.8906 100.396 30.8906C100.881 30.8906 101.329 30.9583 101.74 31.0938C102.151 31.2266 102.513 31.4219 102.826 31.6797C103.138 31.9349 103.392 32.2487 103.588 32.6211C103.783 32.9935 103.904 33.4193 103.951 33.8984ZM112.208 35C112.208 35.8802 112.039 36.6263 111.7 37.2383C111.362 37.8503 110.904 38.3151 110.325 38.6328C109.75 38.9505 109.104 39.1094 108.388 39.1094C107.669 39.1094 107.022 38.9492 106.446 38.6289C105.871 38.3086 105.414 37.8437 105.075 37.2344C104.739 36.6224 104.571 35.8776 104.571 35C104.571 34.1198 104.739 33.3737 105.075 32.7617C105.414 32.1497 105.871 31.6849 106.446 31.3672C107.022 31.0495 107.669 30.8906 108.388 30.8906C109.104 30.8906 109.75 31.0495 110.325 31.3672C110.904 31.6849 111.362 32.1497 111.7 32.7617C112.039 33.3737 112.208 34.1198 112.208 35ZM110.232 35C110.232 34.4792 110.157 34.0391 110.009 33.6797C109.863 33.3203 109.652 33.0482 109.376 32.8633C109.103 32.6784 108.773 32.5859 108.388 32.5859C108.005 32.5859 107.676 32.6784 107.4 32.8633C107.124 33.0482 106.911 33.3203 106.763 33.6797C106.617 34.0391 106.544 34.4792 106.544 35C106.544 35.5208 106.617 35.9609 106.763 36.3203C106.911 36.6797 107.124 36.9518 107.4 37.1367C107.676 37.3216 108.005 37.4141 108.388 37.4141C108.773 37.4141 109.103 37.3216 109.376 37.1367C109.652 36.9518 109.863 36.6797 110.009 36.3203C110.157 35.9609 110.232 35.5208 110.232 35Z" fill="#001E50"/>
<path d="M24.5216 14.6875V16.375H31.3389V14.6875C31.3389 13.7557 32.1005 13 33.0432 13C33.9859 13 34.7475 13.7557 34.7475 14.6875V16.375H37.304C38.7154 16.375 39.8605 17.5083 39.8605 18.9062V21.4375H16V18.9062C16 17.5083 17.1446 16.375 18.5565 16.375H21.113V14.6875C21.113 13.7557 21.8746 13 22.8173 13C23.76 13 24.5216 13.7557 24.5216 14.6875ZM16 23.125H39.8605V37.4688C39.8605 38.8662 38.7154 40 37.304 40H18.5565C17.1446 40 16 38.8662 16 37.4688V23.125ZM20.2608 26.5C19.79 26.5 19.4086 26.8797 19.4086 27.3438V32.4062C19.4086 32.8703 19.79 33.25 20.2608 33.25H25.3738C25.8424 33.25 26.2259 32.8703 26.2259 32.4062V27.3438C26.2259 26.8797 25.8424 26.5 25.3738 26.5H20.2608Z" fill="#3F1055"/>
</svg>
