<svg width="131" height="56" viewBox="0 0 131 56" fill="none" xmlns="http://www.w3.org/2000/svg">
<rect width="131" height="56" rx="13" fill="white"/>
<path d="M58.3672 26.8984H56.4141C56.388 26.6979 56.3346 26.5169 56.2539 26.3555C56.1732 26.194 56.0664 26.056 55.9336 25.9414C55.8008 25.8268 55.6432 25.7396 55.4609 25.6797C55.2813 25.6172 55.082 25.5859 54.8633 25.5859C54.4753 25.5859 54.1406 25.681 53.8594 25.8711C53.5807 26.0612 53.3659 26.3359 53.2148 26.6953C53.0664 27.0547 52.9922 27.4896 52.9922 28C52.9922 28.5312 53.0677 28.9766 53.2188 29.3359C53.3724 29.6927 53.5872 29.9622 53.8633 30.1445C54.1419 30.3242 54.4714 30.4141 54.8516 30.4141C55.0651 30.4141 55.2591 30.3867 55.4336 30.332C55.6107 30.2773 55.7656 30.1979 55.8984 30.0938C56.0339 29.987 56.1445 29.8581 56.2305 29.707C56.319 29.5534 56.3802 29.3802 56.4141 29.1875L58.3672 29.1992C58.3333 29.5534 58.2305 29.9023 58.0586 30.2461C57.8893 30.5898 57.6563 30.9036 57.3594 31.1875C57.0625 31.4687 56.7005 31.6927 56.2734 31.8594C55.849 32.026 55.362 32.1094 54.8125 32.1094C54.0885 32.1094 53.4401 31.9505 52.8672 31.6328C52.2969 31.3125 51.8464 30.8464 51.5156 30.2344C51.1849 29.6224 51.0195 28.8776 51.0195 28C51.0195 27.1198 51.1875 26.3737 51.5234 25.7617C51.8594 25.1497 52.3138 24.6849 52.8867 24.3672C53.4596 24.0495 54.1016 23.8906 54.8125 23.8906C55.2969 23.8906 55.7448 23.9583 56.1563 24.0938C56.5677 24.2266 56.9297 24.4219 57.2422 24.6797C57.5547 24.9349 57.8086 25.2487 58.0039 25.6211C58.1992 25.9935 58.3203 26.4193 58.3672 26.8984ZM66.6244 28C66.6244 28.8802 66.4551 29.6263 66.1166 30.2383C65.7781 30.8503 65.3197 31.3151 64.7416 31.6328C64.1661 31.9505 63.5202 32.1094 62.8041 32.1094C62.0854 32.1094 61.4382 31.9492 60.8627 31.6289C60.2872 31.3086 59.8301 30.8437 59.4916 30.2344C59.1557 29.6224 58.9877 28.8776 58.9877 28C58.9877 27.1198 59.1557 26.3737 59.4916 25.7617C59.8301 25.1497 60.2872 24.6849 60.8627 24.3672C61.4382 24.0495 62.0854 23.8906 62.8041 23.8906C63.5202 23.8906 64.1661 24.0495 64.7416 24.3672C65.3197 24.6849 65.7781 25.1497 66.1166 25.7617C66.4551 26.3737 66.6244 27.1198 66.6244 28ZM64.6479 28C64.6479 27.4792 64.5736 27.0391 64.4252 26.6797C64.2794 26.3203 64.0684 26.0482 63.7924 25.8633C63.5189 25.6784 63.1895 25.5859 62.8041 25.5859C62.4213 25.5859 62.0919 25.6784 61.8158 25.8633C61.5398 26.0482 61.3275 26.3203 61.1791 26.6797C61.0333 27.0391 60.9604 27.4792 60.9604 28C60.9604 28.5208 61.0333 28.9609 61.1791 29.3203C61.3275 29.6797 61.5398 29.9518 61.8158 30.1367C62.0919 30.3216 62.4213 30.4141 62.8041 30.4141C63.1895 30.4141 63.5189 30.3216 63.7924 30.1367C64.0684 29.9518 64.2794 29.6797 64.4252 29.3203C64.5736 28.9609 64.6479 28.5208 64.6479 28ZM67.3533 24H69.7479L71.7791 28.9531H71.8729L73.9041 24H76.2986V32H74.4158V27.0859H74.3494L72.4275 31.9492H71.2244L69.3025 27.0586H69.2361V32H67.3533V24ZM82.3547 26.6133C82.3104 26.4492 82.2453 26.3047 82.1594 26.1797C82.0734 26.0521 81.968 25.944 81.843 25.8555C81.718 25.7669 81.5747 25.7005 81.4133 25.6562C81.2518 25.6094 81.0747 25.5859 80.882 25.5859C80.494 25.5859 80.1581 25.6797 79.8742 25.8672C79.593 26.0547 79.3755 26.3281 79.2219 26.6875C79.0682 27.0443 78.9914 27.4779 78.9914 27.9883C78.9914 28.5013 79.0656 28.9388 79.2141 29.3008C79.3625 29.6628 79.5773 29.9388 79.8586 30.1289C80.1398 30.319 80.481 30.4141 80.882 30.4141C81.2362 30.4141 81.5357 30.3568 81.7805 30.2422C82.0279 30.125 82.2154 29.9596 82.343 29.7461C82.4706 29.5326 82.5344 29.2812 82.5344 28.9922L82.8937 29.0352H80.9484V27.625H84.3977V28.6836C84.3977 29.3997 84.2453 30.013 83.9406 30.5234C83.6385 31.0339 83.2219 31.4258 82.6906 31.6992C82.162 31.9727 81.5539 32.1094 80.8664 32.1094C80.1034 32.1094 79.4328 31.944 78.8547 31.6133C78.2766 31.2826 77.826 30.8112 77.5031 30.1992C77.1802 29.5846 77.0187 28.8555 77.0187 28.0117C77.0187 27.3555 77.1164 26.7734 77.3117 26.2656C77.507 25.7552 77.7792 25.3229 78.1281 24.9687C78.4797 24.6146 78.8859 24.3464 79.3469 24.1641C79.8104 23.9818 80.3091 23.8906 80.843 23.8906C81.3065 23.8906 81.7375 23.957 82.1359 24.0898C82.537 24.2227 82.8911 24.4102 83.1984 24.6523C83.5083 24.8945 83.7596 25.1823 83.9523 25.5156C84.1451 25.849 84.2648 26.2148 84.3117 26.6133H82.3547ZM85.1373 32V24H88.442C89.041 24 89.5579 24.1081 89.9928 24.3242C90.4303 24.5378 90.7675 24.8451 91.0045 25.2461C91.2415 25.6445 91.36 26.1172 91.36 26.6641C91.36 27.2187 91.2389 27.6901 90.9967 28.0781C90.7545 28.4635 90.4107 28.7578 89.9654 28.9609C89.5201 29.1615 88.9928 29.2617 88.3834 29.2617H86.2936V27.7383H88.024C88.3157 27.7383 88.5592 27.7005 88.7545 27.625C88.9524 27.5469 89.1022 27.4297 89.2037 27.2734C89.3053 27.1146 89.3561 26.9115 89.3561 26.6641C89.3561 26.4167 89.3053 26.2122 89.2037 26.0508C89.1022 25.8867 88.9524 25.7643 88.7545 25.6836C88.5566 25.6003 88.3131 25.5586 88.024 25.5586H87.0709V32H85.1373ZM89.6412 28.3437L91.6334 32H89.524L87.5709 28.3437H89.6412ZM93.751 32H91.6729L94.3721 24H96.9463L99.6455 32H97.5674L95.6885 26.0156H95.626L93.751 32ZM93.4736 28.8516H97.8174V30.3203H93.4736V28.8516ZM103.064 32H100.107V24H103.06C103.875 24 104.577 24.1602 105.165 24.4805C105.757 24.7982 106.212 25.2565 106.533 25.8555C106.853 26.4518 107.013 27.1654 107.013 27.9961C107.013 28.8294 106.853 29.5456 106.533 30.1445C106.215 30.7435 105.76 31.2031 105.169 31.5234C104.578 31.8411 103.876 32 103.064 32ZM102.04 30.3516H102.99C103.438 30.3516 103.816 30.276 104.126 30.125C104.439 29.9714 104.675 29.7227 104.833 29.3789C104.995 29.0326 105.076 28.5716 105.076 27.9961C105.076 27.4206 104.995 26.9622 104.833 26.6211C104.672 26.2773 104.434 26.0299 104.119 25.8789C103.806 25.7253 103.421 25.6484 102.962 25.6484H102.04V30.3516ZM112.066 26.3984C112.04 26.112 111.924 25.8893 111.719 25.7305C111.515 25.569 111.225 25.4883 110.847 25.4883C110.597 25.4883 110.389 25.5208 110.222 25.5859C110.056 25.651 109.931 25.7409 109.847 25.8555C109.764 25.9674 109.721 26.0964 109.719 26.2422C109.713 26.362 109.737 26.4674 109.789 26.5586C109.844 26.6497 109.922 26.7305 110.023 26.8008C110.127 26.8685 110.252 26.9284 110.398 26.9805C110.544 27.0326 110.708 27.0781 110.89 27.1172L111.578 27.2734C111.974 27.3594 112.323 27.474 112.625 27.6172C112.929 27.7604 113.185 27.931 113.39 28.1289C113.599 28.3268 113.756 28.5547 113.863 28.8125C113.97 29.0703 114.025 29.3594 114.027 29.6797C114.025 30.1849 113.897 30.6185 113.644 30.9805C113.392 31.3424 113.028 31.6198 112.554 31.8125C112.083 32.0052 111.514 32.1016 110.847 32.1016C110.178 32.1016 109.595 32.0013 109.097 31.8008C108.6 31.6003 108.213 31.2956 107.937 30.8867C107.661 30.4779 107.519 29.9609 107.512 29.3359H109.363C109.379 29.5938 109.448 29.8086 109.57 29.9805C109.693 30.1523 109.86 30.2826 110.074 30.3711C110.29 30.4596 110.54 30.5039 110.824 30.5039C111.084 30.5039 111.306 30.4687 111.488 30.3984C111.673 30.3281 111.815 30.2305 111.914 30.1055C112.013 29.9805 112.064 29.8372 112.066 29.6758C112.064 29.5247 112.017 29.3958 111.926 29.2891C111.834 29.1797 111.694 29.0859 111.504 29.0078C111.316 28.9271 111.077 28.8529 110.785 28.7852L109.949 28.5898C109.256 28.431 108.711 28.1745 108.312 27.8203C107.914 27.4635 107.716 26.9818 107.719 26.375C107.716 25.8802 107.849 25.4466 108.117 25.0742C108.385 24.7018 108.756 24.4115 109.23 24.2031C109.704 23.9948 110.245 23.8906 110.851 23.8906C111.471 23.8906 112.009 23.9961 112.465 24.207C112.923 24.4154 113.278 24.7083 113.531 25.0859C113.784 25.4635 113.913 25.901 113.918 26.3984H112.066Z" fill="#001E50"/>
<path d="M30.6201 31.625C33.4233 31.625 35.6543 29.3516 35.6543 26.5469C35.6543 23.7422 33.3818 21.4688 30.6201 21.4688C27.8169 21.4688 25.5859 23.7422 25.5859 26.5469C25.542 29.3496 27.8174 31.625 30.6201 31.625ZM33.0615 33.1875H28.1885C24.3555 33.1875 21.25 36.1025 21.25 39.6963C21.25 40.4189 21.8701 41 22.6367 41H38.6133C39.3799 41 40 40.4189 40 39.6963C40 36.1025 36.8945 33.1875 33.0615 33.1875ZM40 23.8125C42.1572 23.8125 43.9062 22.0635 43.9062 19.9062C43.9062 17.749 42.1582 16 40 16C37.8428 16 36.0938 17.749 36.0938 19.9062C36.0938 22.0635 37.8418 23.8125 40 23.8125ZM23.9795 26.5469C23.9795 26.2808 24.0275 26.0278 24.0581 25.77C23.5254 25.4775 22.9395 25.375 22.3193 25.375H19.3008C16.9258 25.375 15 27.416 15 29.9307C15 30.4336 15.3851 30.8438 15.8604 30.8438H25.6016C24.6045 29.6816 23.9795 28.1924 23.9795 26.5469ZM21.25 23.8125C23.4072 23.8125 25.1562 22.0635 25.1562 19.9062C25.1562 17.749 23.4082 16 21.25 16C19.0928 16 17.3438 17.749 17.3438 19.9062C17.3438 22.0635 19.0928 23.8125 21.25 23.8125ZM41.9482 25.375H38.9287C38.3037 25.375 37.7139 25.5233 37.1777 25.7773C37.207 26.0342 37.2559 26.2832 37.2559 26.5469C37.2559 28.1929 36.6318 29.6821 35.6367 30.8438H45.3877C45.8643 30.8438 46.25 30.4336 46.25 29.9307C46.25 27.416 44.3262 25.375 41.9482 25.375Z" fill="#3F1055"/>
</svg>
