<svg width="131" height="56" viewBox="0 0 131 56" fill="none" xmlns="http://www.w3.org/2000/svg">
<rect width="131" height="56" rx="13" fill="white"/>
<path d="M50.8672 26.8984H48.9141C48.888 26.6979 48.8346 26.5169 48.7539 26.3555C48.6732 26.194 48.5664 26.056 48.4336 25.9414C48.3008 25.8268 48.1432 25.7396 47.9609 25.6797C47.7813 25.6172 47.582 25.5859 47.3633 25.5859C46.9753 25.5859 46.6406 25.681 46.3594 25.8711C46.0807 26.0612 45.8659 26.3359 45.7148 26.6953C45.5664 27.0547 45.4922 27.4896 45.4922 28C45.4922 28.5312 45.5677 28.9766 45.7188 29.3359C45.8724 29.6927 46.0872 29.9622 46.3633 30.1445C46.6419 30.3242 46.9714 30.4141 47.3516 30.4141C47.5651 30.4141 47.7591 30.3867 47.9336 30.332C48.1107 30.2773 48.2656 30.1979 48.3984 30.0938C48.5339 29.987 48.6445 29.8581 48.7305 29.707C48.819 29.5534 48.8802 29.3802 48.9141 29.1875L50.8672 29.1992C50.8333 29.5534 50.7305 29.9023 50.5586 30.2461C50.3893 30.5898 50.1563 30.9036 49.8594 31.1875C49.5625 31.4687 49.2005 31.6927 48.7734 31.8594C48.349 32.026 47.862 32.1094 47.3125 32.1094C46.5885 32.1094 45.9401 31.9505 45.3672 31.6328C44.7969 31.3125 44.3464 30.8464 44.0156 30.2344C43.6849 29.6224 43.5195 28.8776 43.5195 28C43.5195 27.1198 43.6875 26.3737 44.0234 25.7617C44.3594 25.1497 44.8138 24.6849 45.3867 24.3672C45.9596 24.0495 46.6016 23.8906 47.3125 23.8906C47.7969 23.8906 48.2448 23.9583 48.6563 24.0938C49.0677 24.2266 49.4297 24.4219 49.7422 24.6797C50.0547 24.9349 50.3086 25.2487 50.5039 25.6211C50.6992 25.9935 50.8203 26.4193 50.8672 26.8984ZM59.1244 28C59.1244 28.8802 58.9551 29.6263 58.6166 30.2383C58.2781 30.8503 57.8197 31.3151 57.2416 31.6328C56.6661 31.9505 56.0202 32.1094 55.3041 32.1094C54.5854 32.1094 53.9382 31.9492 53.3627 31.6289C52.7872 31.3086 52.3301 30.8437 51.9916 30.2344C51.6557 29.6224 51.4877 28.8776 51.4877 28C51.4877 27.1198 51.6557 26.3737 51.9916 25.7617C52.3301 25.1497 52.7872 24.6849 53.3627 24.3672C53.9382 24.0495 54.5854 23.8906 55.3041 23.8906C56.0202 23.8906 56.6661 24.0495 57.2416 24.3672C57.8197 24.6849 58.2781 25.1497 58.6166 25.7617C58.9551 26.3737 59.1244 27.1198 59.1244 28ZM57.1479 28C57.1479 27.4792 57.0736 27.0391 56.9252 26.6797C56.7794 26.3203 56.5684 26.0482 56.2924 25.8633C56.0189 25.6784 55.6895 25.5859 55.3041 25.5859C54.9213 25.5859 54.5919 25.6784 54.3158 25.8633C54.0398 26.0482 53.8275 26.3203 53.6791 26.6797C53.5333 27.0391 53.4604 27.4792 53.4604 28C53.4604 28.5208 53.5333 28.9609 53.6791 29.3203C53.8275 29.6797 54.0398 29.9518 54.3158 30.1367C54.5919 30.3216 54.9213 30.4141 55.3041 30.4141C55.6895 30.4141 56.0189 30.3216 56.2924 30.1367C56.5684 29.9518 56.7794 29.6797 56.9252 29.3203C57.0736 28.9609 57.1479 28.5208 57.1479 28ZM66.6619 24V32H65.0213L61.8377 27.3828H61.7869V32H59.8533V24H61.5174L64.6658 28.6094H64.7322V24H66.6619ZM74.7395 26.8984H72.7863C72.7603 26.6979 72.7069 26.5169 72.6262 26.3555C72.5454 26.194 72.4387 26.056 72.3059 25.9414C72.173 25.8268 72.0155 25.7396 71.8332 25.6797C71.6535 25.6172 71.4543 25.5859 71.2355 25.5859C70.8475 25.5859 70.5129 25.681 70.2316 25.8711C69.953 26.0612 69.7382 26.3359 69.5871 26.6953C69.4387 27.0547 69.3645 27.4896 69.3645 28C69.3645 28.5312 69.44 28.9766 69.591 29.3359C69.7447 29.6927 69.9595 29.9622 70.2355 30.1445C70.5142 30.3242 70.8436 30.4141 71.2238 30.4141C71.4374 30.4141 71.6314 30.3867 71.8059 30.332C71.9829 30.2773 72.1379 30.1979 72.2707 30.0938C72.4061 29.987 72.5168 29.8581 72.6027 29.707C72.6913 29.5534 72.7525 29.3802 72.7863 29.1875L74.7395 29.1992C74.7056 29.5534 74.6027 29.9023 74.4309 30.2461C74.2616 30.5898 74.0285 30.9036 73.7316 31.1875C73.4348 31.4687 73.0728 31.6927 72.6457 31.8594C72.2212 32.026 71.7342 32.1094 71.1848 32.1094C70.4608 32.1094 69.8124 31.9505 69.2395 31.6328C68.6691 31.3125 68.2186 30.8464 67.8879 30.2344C67.5572 29.6224 67.3918 28.8776 67.3918 28C67.3918 27.1198 67.5598 26.3737 67.8957 25.7617C68.2316 25.1497 68.6861 24.6849 69.259 24.3672C69.8319 24.0495 70.4738 23.8906 71.1848 23.8906C71.6691 23.8906 72.1171 23.9583 72.5285 24.0938C72.94 24.2266 73.302 24.4219 73.6145 24.6797C73.927 24.9349 74.1809 25.2487 74.3762 25.6211C74.5715 25.9935 74.6926 26.4193 74.7395 26.8984ZM80.2857 24H82.2154V29.1602C82.2154 29.7565 82.0735 30.276 81.7896 30.7187C81.5058 31.1589 81.11 31.5 80.6021 31.7422C80.0943 31.9818 79.5045 32.1016 78.8326 32.1016C78.1529 32.1016 77.5592 31.9818 77.0514 31.7422C76.5436 31.5 76.149 31.1589 75.8678 30.7187C75.5865 30.276 75.4459 29.7565 75.4459 29.1602V24H77.3795V28.9922C77.3795 29.2682 77.4394 29.5143 77.5592 29.7305C77.6816 29.9466 77.8521 30.1159 78.0709 30.2383C78.2896 30.3607 78.5436 30.4219 78.8326 30.4219C79.1217 30.4219 79.3743 30.3607 79.5904 30.2383C79.8092 30.1159 79.9798 29.9466 80.1021 29.7305C80.2245 29.5143 80.2857 29.2682 80.2857 28.9922V24ZM83.0273 32V24H86.332C86.931 24 87.4479 24.1081 87.8828 24.3242C88.3203 24.5378 88.6576 24.8451 88.8945 25.2461C89.1315 25.6445 89.25 26.1172 89.25 26.6641C89.25 27.2187 89.1289 27.6901 88.8867 28.0781C88.6445 28.4635 88.3008 28.7578 87.8555 28.9609C87.4102 29.1615 86.8828 29.2617 86.2734 29.2617H84.1836V27.7383H85.9141C86.2057 27.7383 86.4492 27.7005 86.6445 27.625C86.8424 27.5469 86.9922 27.4297 87.0938 27.2734C87.1953 27.1146 87.2461 26.9115 87.2461 26.6641C87.2461 26.4167 87.1953 26.2122 87.0938 26.0508C86.9922 25.8867 86.8424 25.7643 86.6445 25.6836C86.4466 25.6003 86.2031 25.5586 85.9141 25.5586H84.9609V32H83.0273ZM87.5313 28.3437L89.5234 32H87.4141L85.4609 28.3437H87.5313ZM94.2348 26.3984C94.2087 26.112 94.0928 25.8893 93.8871 25.7305C93.684 25.569 93.3936 25.4883 93.016 25.4883C92.766 25.4883 92.5577 25.5208 92.391 25.5859C92.2243 25.651 92.0993 25.7409 92.016 25.8555C91.9327 25.9674 91.8897 26.0964 91.8871 26.2422C91.8819 26.362 91.9053 26.4674 91.9574 26.5586C92.0121 26.6497 92.0902 26.7305 92.1918 26.8008C92.296 26.8685 92.421 26.9284 92.5668 26.9805C92.7126 27.0326 92.8767 27.0781 93.059 27.1172L93.7465 27.2734C94.1423 27.3594 94.4913 27.474 94.7934 27.6172C95.098 27.7604 95.3533 27.931 95.559 28.1289C95.7673 28.3268 95.9249 28.5547 96.0316 28.8125C96.1384 29.0703 96.1931 29.3594 96.1957 29.6797C96.1931 30.1849 96.0655 30.6185 95.8129 30.9805C95.5603 31.3424 95.197 31.6198 94.723 31.8125C94.2517 32.0052 93.6827 32.1016 93.016 32.1016C92.3467 32.1016 91.7634 32.0013 91.266 31.8008C90.7686 31.6003 90.3819 31.2956 90.1059 30.8867C89.8298 30.4779 89.6879 29.9609 89.6801 29.3359H91.5316C91.5473 29.5938 91.6163 29.8086 91.7387 29.9805C91.8611 30.1523 92.029 30.2826 92.2426 30.3711C92.4587 30.4596 92.7087 30.5039 92.9926 30.5039C93.253 30.5039 93.4743 30.4687 93.6566 30.3984C93.8415 30.3281 93.9835 30.2305 94.0824 30.1055C94.1814 29.9805 94.2322 29.8372 94.2348 29.6758C94.2322 29.5247 94.1853 29.3958 94.0941 29.2891C94.003 29.1797 93.8624 29.0859 93.6723 29.0078C93.4848 28.9271 93.2452 28.8529 92.9535 28.7852L92.1176 28.5898C91.4249 28.431 90.8793 28.1745 90.4809 27.8203C90.0824 27.4635 89.8845 26.9818 89.8871 26.375C89.8845 25.8802 90.0173 25.4466 90.2855 25.0742C90.5538 24.7018 90.9249 24.4115 91.3988 24.2031C91.8728 23.9948 92.4131 23.8906 93.0199 23.8906C93.6397 23.8906 94.1775 23.9961 94.6332 24.207C95.0915 24.4154 95.447 24.7083 95.6996 25.0859C95.9522 25.4635 96.0811 25.901 96.0863 26.3984H94.2348ZM104.323 28C104.323 28.8802 104.154 29.6263 103.815 30.2383C103.477 30.8503 103.018 31.3151 102.44 31.6328C101.865 31.9505 101.219 32.1094 100.503 32.1094C99.784 32.1094 99.1368 31.9492 98.5613 31.6289C97.9858 31.3086 97.5288 30.8437 97.1902 30.2344C96.8543 29.6224 96.6863 28.8776 96.6863 28C96.6863 27.1198 96.8543 26.3737 97.1902 25.7617C97.5288 25.1497 97.9858 24.6849 98.5613 24.3672C99.1368 24.0495 99.784 23.8906 100.503 23.8906C101.219 23.8906 101.865 24.0495 102.44 24.3672C103.018 24.6849 103.477 25.1497 103.815 25.7617C104.154 26.3737 104.323 27.1198 104.323 28ZM102.346 28C102.346 27.4792 102.272 27.0391 102.124 26.6797C101.978 26.3203 101.767 26.0482 101.491 25.8633C101.218 25.6784 100.888 25.5859 100.503 25.5859C100.12 25.5859 99.7905 25.6784 99.5145 25.8633C99.2384 26.0482 99.0262 26.3203 98.8777 26.6797C98.7319 27.0391 98.659 27.4792 98.659 28C98.659 28.5208 98.7319 28.9609 98.8777 29.3203C99.0262 29.6797 99.2384 29.9518 99.5145 30.1367C99.7905 30.3216 100.12 30.4141 100.503 30.4141C100.888 30.4141 101.218 30.3216 101.491 30.1367C101.767 29.9518 101.978 29.6797 102.124 29.3203C102.272 28.9609 102.346 28.5208 102.346 28ZM109.376 26.3984C109.35 26.112 109.234 25.8893 109.029 25.7305C108.825 25.569 108.535 25.4883 108.157 25.4883C107.907 25.4883 107.699 25.5208 107.532 25.5859C107.366 25.651 107.241 25.7409 107.157 25.8555C107.074 25.9674 107.031 26.0964 107.029 26.2422C107.023 26.362 107.047 26.4674 107.099 26.5586C107.154 26.6497 107.232 26.7305 107.333 26.8008C107.437 26.8685 107.562 26.9284 107.708 26.9805C107.854 27.0326 108.018 27.0781 108.2 27.1172L108.888 27.2734C109.284 27.3594 109.633 27.474 109.935 27.6172C110.239 27.7604 110.495 27.931 110.7 28.1289C110.909 28.3268 111.066 28.5547 111.173 28.8125C111.28 29.0703 111.335 29.3594 111.337 29.6797C111.335 30.1849 111.207 30.6185 110.954 30.9805C110.702 31.3424 110.338 31.6198 109.864 31.8125C109.393 32.0052 108.824 32.1016 108.157 32.1016C107.488 32.1016 106.905 32.0013 106.407 31.8008C105.91 31.6003 105.523 31.2956 105.247 30.8867C104.971 30.4779 104.829 29.9609 104.821 29.3359H106.673C106.689 29.5938 106.758 29.8086 106.88 29.9805C107.002 30.1523 107.17 30.2826 107.384 30.3711C107.6 30.4596 107.85 30.5039 108.134 30.5039C108.394 30.5039 108.616 30.4687 108.798 30.3984C108.983 30.3281 109.125 30.2305 109.224 30.1055C109.323 29.9805 109.374 29.8372 109.376 29.6758C109.374 29.5247 109.327 29.3958 109.236 29.2891C109.144 29.1797 109.004 29.0859 108.814 29.0078C108.626 28.9271 108.387 28.8529 108.095 28.7852L107.259 28.5898C106.566 28.431 106.021 28.1745 105.622 27.8203C105.224 27.4635 105.026 26.9818 105.029 26.375C105.026 25.8802 105.159 25.4466 105.427 25.0742C105.695 24.7018 106.066 24.4115 106.54 24.2031C107.014 23.9948 107.555 23.8906 108.161 23.8906C108.781 23.8906 109.319 23.9961 109.775 24.207C110.233 24.4154 110.588 24.7083 110.841 25.0859C111.094 25.4635 111.223 25.901 111.228 26.3984H109.376Z" fill="#001E50"/>
<path d="M41.086 15.8441C42.3081 17.0657 42.3081 19.0485 41.086 20.2707L38.539 22.8176L32.1839 16.464L34.7308 13.9165C35.953 12.6945 37.9377 12.6945 39.1599 13.9165L41.086 15.8441ZM28.7374 18.589C28.3219 18.1295 27.5789 18.1295 27.1193 18.589L22.089 23.5363C21.6735 24.0349 20.9304 24.0349 20.4723 23.5363C20.0143 23.1207 20.0143 22.3777 20.4723 21.9181L25.4621 16.9303C26.8358 15.5557 29.065 15.5557 30.4387 16.9303L37.4293 23.9224L28.2193 33.1374C25.8727 35.4839 22.8809 37.0825 19.6252 37.7326L18.4035 37.9771C18.0188 38.0553 17.6208 37.9331 17.3437 37.6153C17.0663 37.3807 16.9459 36.9847 17.0228 36.5985L17.2672 35.3764C17.9181 32.1206 19.5186 29.1288 21.8661 26.7823L29.4218 19.2294L28.7374 18.589Z" fill="#3F1055"/>
</svg>
