<svg width="131" height="56" viewBox="0 0 131 56" fill="none" xmlns="http://www.w3.org/2000/svg">
<rect width="131" height="56" rx="13" fill="white"/>
<path d="M46.5625 26H43.6055V18H46.5586C47.3737 18 48.0755 18.1602 48.6641 18.4805C49.2552 18.7982 49.7109 19.2565 50.0313 19.8555C50.3516 20.4518 50.5117 21.1654 50.5117 21.9961C50.5117 22.8294 50.3516 23.5456 50.0313 24.1445C49.7135 24.7435 49.2591 25.2031 48.668 25.5234C48.0768 25.8411 47.375 26 46.5625 26ZM45.5391 24.3516H46.4883C46.9362 24.3516 47.3151 24.276 47.625 24.125C47.9375 23.9714 48.1732 23.7227 48.332 23.3789C48.4935 23.0326 48.5742 22.5716 48.5742 21.9961C48.5742 21.4206 48.4935 20.9622 48.332 20.6211C48.1706 20.2773 47.9323 20.0299 47.6172 19.8789C47.3047 19.7253 46.9193 19.6484 46.4609 19.6484H45.5391V24.3516ZM58.7914 22C58.7914 22.8802 58.6221 23.6263 58.2836 24.2383C57.9451 24.8503 57.4867 25.3151 56.9086 25.6328C56.3331 25.9505 55.6872 26.1094 54.9711 26.1094C54.2523 26.1094 53.6052 25.9492 53.0297 25.6289C52.4542 25.3086 51.9971 24.8437 51.6586 24.2344C51.3227 23.6224 51.1547 22.8776 51.1547 22C51.1547 21.1198 51.3227 20.3737 51.6586 19.7617C51.9971 19.1497 52.4542 18.6849 53.0297 18.3672C53.6052 18.0495 54.2523 17.8906 54.9711 17.8906C55.6872 17.8906 56.3331 18.0495 56.9086 18.3672C57.4867 18.6849 57.9451 19.1497 58.2836 19.7617C58.6221 20.3737 58.7914 21.1198 58.7914 22ZM56.8148 22C56.8148 21.4792 56.7406 21.0391 56.5922 20.6797C56.4464 20.3203 56.2354 20.0482 55.9594 19.8633C55.6859 19.6784 55.3565 19.5859 54.9711 19.5859C54.5883 19.5859 54.2589 19.6784 53.9828 19.8633C53.7068 20.0482 53.4945 20.3203 53.3461 20.6797C53.2003 21.0391 53.1273 21.4792 53.1273 22C53.1273 22.5208 53.2003 22.9609 53.3461 23.3203C53.4945 23.6797 53.7068 23.9518 53.9828 24.1367C54.2589 24.3216 54.5883 24.4141 54.9711 24.4141C55.3565 24.4141 55.6859 24.3216 55.9594 24.1367C56.2354 23.9518 56.4464 23.6797 56.5922 23.3203C56.7406 22.9609 56.8148 22.5208 56.8148 22ZM66.782 20.8984H64.8289C64.8029 20.6979 64.7495 20.5169 64.6687 20.3555C64.588 20.194 64.4812 20.056 64.3484 19.9414C64.2156 19.8268 64.0581 19.7396 63.8758 19.6797C63.6961 19.6172 63.4969 19.5859 63.2781 19.5859C62.8901 19.5859 62.5555 19.681 62.2742 19.8711C61.9956 20.0612 61.7807 20.3359 61.6297 20.6953C61.4812 21.0547 61.407 21.4896 61.407 22C61.407 22.5312 61.4826 22.9766 61.6336 23.3359C61.7872 23.6927 62.0021 23.9622 62.2781 24.1445C62.5568 24.3242 62.8862 24.4141 63.2664 24.4141C63.4799 24.4141 63.674 24.3867 63.8484 24.332C64.0255 24.2773 64.1805 24.1979 64.3133 24.0938C64.4487 23.987 64.5594 23.8581 64.6453 23.707C64.7339 23.5534 64.7951 23.3802 64.8289 23.1875L66.782 23.1992C66.7482 23.5534 66.6453 23.9023 66.4734 24.2461C66.3042 24.5898 66.0711 24.9036 65.7742 25.1875C65.4773 25.4687 65.1154 25.6927 64.6883 25.8594C64.2638 26.026 63.7768 26.1094 63.2273 26.1094C62.5034 26.1094 61.8549 25.9505 61.282 25.6328C60.7117 25.3125 60.2612 24.8464 59.9305 24.2344C59.5997 23.6224 59.4344 22.8776 59.4344 22C59.4344 21.1198 59.6023 20.3737 59.9383 19.7617C60.2742 19.1497 60.7286 18.6849 61.3016 18.3672C61.8745 18.0495 62.5164 17.8906 63.2273 17.8906C63.7117 17.8906 64.1596 17.9583 64.5711 18.0938C64.9826 18.2266 65.3445 18.4219 65.657 18.6797C65.9695 18.9349 66.2234 19.2487 66.4187 19.6211C66.6141 19.9935 66.7352 20.4193 66.782 20.8984ZM72.3283 18H74.258V23.1602C74.258 23.7565 74.1161 24.276 73.8322 24.7187C73.5484 25.1589 73.1525 25.5 72.6447 25.7422C72.1369 25.9818 71.5471 26.1016 70.8752 26.1016C70.1955 26.1016 69.6018 25.9818 69.0939 25.7422C68.5861 25.5 68.1916 25.1589 67.9104 24.7187C67.6291 24.276 67.4885 23.7565 67.4885 23.1602V18H69.4221V22.9922C69.4221 23.2682 69.482 23.5143 69.6018 23.7305C69.7242 23.9466 69.8947 24.1159 70.1135 24.2383C70.3322 24.3607 70.5861 24.4219 70.8752 24.4219C71.1643 24.4219 71.4169 24.3607 71.633 24.2383C71.8518 24.1159 72.0223 23.9466 72.1447 23.7305C72.2671 23.5143 72.3283 23.2682 72.3283 22.9922V18ZM75.0699 18H77.4645L79.4957 22.9531H79.5895L81.6207 18H84.0152V26H82.1324V21.0859H82.066L80.1441 25.9492H78.941L77.0191 21.0586H76.9527V26H75.0699V18ZM84.8213 26V18H90.3994V19.5703H86.7549V21.2109H90.1143V22.7852H86.7549V24.4297H90.3994V26H84.8213ZM98.0189 18V26H96.3783L93.1947 21.3828H93.1439V26H91.2104V18H92.8744L96.0229 22.6094H96.0893V18H98.0189ZM98.573 19.5703V18H105.335V19.5703H102.909V26H101.003V19.5703H98.573ZM113.065 22C113.065 22.8802 112.895 23.6263 112.557 24.2383C112.218 24.8503 111.76 25.3151 111.182 25.6328C110.606 25.9505 109.96 26.1094 109.244 26.1094C108.526 26.1094 107.878 25.9492 107.303 25.6289C106.727 25.3086 106.27 24.8437 105.932 24.2344C105.596 23.6224 105.428 22.8776 105.428 22C105.428 21.1198 105.596 20.3737 105.932 19.7617C106.27 19.1497 106.727 18.6849 107.303 18.3672C107.878 18.0495 108.526 17.8906 109.244 17.8906C109.96 17.8906 110.606 18.0495 111.182 18.3672C111.76 18.6849 112.218 19.1497 112.557 19.7617C112.895 20.3737 113.065 21.1198 113.065 22ZM111.088 22C111.088 21.4792 111.014 21.0391 110.865 20.6797C110.72 20.3203 110.509 20.0482 110.233 19.8633C109.959 19.6784 109.63 19.5859 109.244 19.5859C108.862 19.5859 108.532 19.6784 108.256 19.8633C107.98 20.0482 107.768 20.3203 107.619 20.6797C107.474 21.0391 107.401 21.4792 107.401 22C107.401 22.5208 107.474 22.9609 107.619 23.3203C107.768 23.6797 107.98 23.9518 108.256 24.1367C108.532 24.3216 108.862 24.4141 109.244 24.4141C109.63 24.4141 109.959 24.3216 110.233 24.1367C110.509 23.9518 110.72 23.6797 110.865 23.3203C111.014 22.9609 111.088 22.5208 111.088 22ZM118.118 20.3984C118.092 20.112 117.976 19.8893 117.77 19.7305C117.567 19.569 117.277 19.4883 116.899 19.4883C116.649 19.4883 116.441 19.5208 116.274 19.5859C116.107 19.651 115.982 19.7409 115.899 19.8555C115.816 19.9674 115.773 20.0964 115.77 20.2422C115.765 20.362 115.788 20.4674 115.84 20.5586C115.895 20.6497 115.973 20.7305 116.075 20.8008C116.179 20.8685 116.304 20.9284 116.45 20.9805C116.596 21.0326 116.76 21.0781 116.942 21.1172L117.629 21.2734C118.025 21.3594 118.374 21.474 118.676 21.6172C118.981 21.7604 119.236 21.931 119.442 22.1289C119.65 22.3268 119.808 22.5547 119.915 22.8125C120.021 23.0703 120.076 23.3594 120.079 23.6797C120.076 24.1849 119.949 24.6185 119.696 24.9805C119.443 25.3424 119.08 25.6198 118.606 25.8125C118.135 26.0052 117.566 26.1016 116.899 26.1016C116.23 26.1016 115.646 26.0013 115.149 25.8008C114.652 25.6003 114.265 25.2956 113.989 24.8867C113.713 24.4779 113.571 23.9609 113.563 23.3359H115.415C115.43 23.5938 115.499 23.8086 115.622 23.9805C115.744 24.1523 115.912 24.2826 116.126 24.3711C116.342 24.4596 116.592 24.5039 116.876 24.5039C117.136 24.5039 117.357 24.4687 117.54 24.3984C117.725 24.3281 117.866 24.2305 117.965 24.1055C118.064 23.9805 118.115 23.8372 118.118 23.6758C118.115 23.5247 118.068 23.3958 117.977 23.2891C117.886 23.1797 117.745 23.0859 117.555 23.0078C117.368 22.9271 117.128 22.8529 116.837 22.7852L116.001 22.5898C115.308 22.431 114.762 22.1745 114.364 21.8203C113.965 21.4635 113.768 20.9818 113.77 20.375C113.768 19.8802 113.9 19.4466 114.169 19.0742C114.437 18.7018 114.808 18.4115 115.282 18.2031C115.756 17.9948 116.296 17.8906 116.903 17.8906C117.523 17.8906 118.06 17.9961 118.516 18.207C118.975 18.4154 119.33 18.7083 119.583 19.0859C119.835 19.4635 119.964 19.901 119.969 20.3984H118.118ZM46.5625 39H43.6055V31H46.5586C47.3737 31 48.0755 31.1602 48.6641 31.4805C49.2552 31.7982 49.7109 32.2565 50.0313 32.8555C50.3516 33.4518 50.5117 34.1654 50.5117 34.9961C50.5117 35.8294 50.3516 36.5456 50.0313 37.1445C49.7135 37.7435 49.2591 38.2031 48.668 38.5234C48.0768 38.8411 47.375 39 46.5625 39ZM45.5391 37.3516H46.4883C46.9362 37.3516 47.3151 37.276 47.625 37.125C47.9375 36.9714 48.1732 36.7227 48.332 36.3789C48.4935 36.0326 48.5742 35.5716 48.5742 34.9961C48.5742 34.4206 48.4935 33.9622 48.332 33.6211C48.1706 33.2773 47.9323 33.0299 47.6172 32.8789C47.3047 32.7253 46.9193 32.6484 46.4609 32.6484H45.5391V37.3516ZM52.4984 39H50.4203L53.1195 31H55.6938L58.393 39H56.3148L54.4359 33.0156H54.3734L52.4984 39ZM52.2211 35.8516H56.5648V37.3203H52.2211V35.8516ZM65.6574 31H67.5871V36.1602C67.5871 36.7565 67.4452 37.276 67.1613 37.7187C66.8775 38.1589 66.4816 38.5 65.9738 38.7422C65.466 38.9818 64.8762 39.1016 64.2043 39.1016C63.5246 39.1016 62.9309 38.9818 62.423 38.7422C61.9152 38.5 61.5207 38.1589 61.2395 37.7187C60.9582 37.276 60.8176 36.7565 60.8176 36.1602V31H62.7512V35.9922C62.7512 36.2682 62.8111 36.5143 62.9309 36.7305C63.0533 36.9466 63.2238 37.1159 63.4426 37.2383C63.6613 37.3607 63.9152 37.4219 64.2043 37.4219C64.4934 37.4219 64.746 37.3607 64.9621 37.2383C65.1809 37.1159 65.3514 36.9466 65.4738 36.7305C65.5962 36.5143 65.6574 36.2682 65.6574 35.9922V31ZM75.2076 31V39H73.567L70.3834 34.3828H70.3326V39H68.399V31H70.0631L73.2115 35.6094H73.2779V31H75.2076ZM77.957 31V39H76.0234V31H77.957ZM81.7279 39H78.7709V31H81.724C82.5391 31 83.2409 31.1602 83.8295 31.4805C84.4206 31.7982 84.8764 32.2565 85.1967 32.8555C85.517 33.4518 85.6771 34.1654 85.6771 34.9961C85.6771 35.8294 85.517 36.5456 85.1967 37.1445C84.879 37.7435 84.4245 38.2031 83.8334 38.5234C83.2423 38.8411 82.5404 39 81.7279 39ZM80.7045 37.3516H81.6537C82.1016 37.3516 82.4805 37.276 82.7904 37.125C83.1029 36.9714 83.3386 36.7227 83.4975 36.3789C83.6589 36.0326 83.7396 35.5716 83.7396 34.9961C83.7396 34.4206 83.6589 33.9622 83.4975 33.6211C83.336 33.2773 83.0977 33.0299 82.7826 32.8789C82.4701 32.7253 82.0847 32.6484 81.6264 32.6484H80.7045V37.3516ZM87.6639 39H85.5857L88.285 31H90.8592L93.5584 39H91.4803L89.6014 33.0156H89.5389L87.6639 39ZM87.3865 35.8516H91.7303V37.3203H87.3865V35.8516ZM96.9768 39H94.0197V31H96.9729C97.788 31 98.4898 31.1602 99.0783 31.4805C99.6695 31.7982 100.125 32.2565 100.446 32.8555C100.766 33.4518 100.926 34.1654 100.926 34.9961C100.926 35.8294 100.766 36.5456 100.446 37.1445C100.128 37.7435 99.6734 38.2031 99.0822 38.5234C98.4911 38.8411 97.7893 39 96.9768 39ZM95.9533 37.3516H96.9025C97.3505 37.3516 97.7294 37.276 98.0393 37.125C98.3518 36.9714 98.5874 36.7227 98.7463 36.3789C98.9077 36.0326 98.9885 35.5716 98.9885 34.9961C98.9885 34.4206 98.9077 33.9622 98.7463 33.6211C98.5848 33.2773 98.3465 33.0299 98.0314 32.8789C97.7189 32.7253 97.3335 32.6484 96.8752 32.6484H95.9533V37.3516ZM101.655 39V31H107.233V32.5703H103.588V34.2109H106.948V35.7852H103.588V37.4297H107.233V39H101.655Z" fill="#001E50"/>
<path d="M17.258 22.8571H33.5714V20.5C33.5714 19.1987 32.5156 18.1429 31.2143 18.1429H23.3571L20.2143 15H12.3571C11.0553 15 10 16.0553 10 17.3571V33.4839L14.4462 24.5906C14.9795 23.525 16.0598 22.8571 17.258 22.8571ZM36.6701 24.4286H17.258C16.6638 24.4286 16.1188 24.7625 15.8536 25.2978L10 37H31.9558C32.551 37 33.0951 36.6635 33.3613 36.1313L38.0755 26.7027C38.6393 25.6562 37.8781 24.4286 36.6701 24.4286Z" fill="#3F1055"/>
</svg>
