<svg width="354" height="40" viewBox="0 0 354 40" fill="none" xmlns="http://www.w3.org/2000/svg">
<path d="M351.524 12.4646C353.024 15.9833 353.418 19.8757 352.652 23.6237C351.886 27.3717 349.996 30.7975 347.235 33.4451C345.397 35.2411 343.228 36.6631 340.848 37.6321C338.483 38.5935 335.951 39.0792 333.397 39.0615C330.808 39.0763 328.241 38.5802 325.844 37.6016C323.466 36.6517 321.3 35.2388 319.472 33.4451C317.642 31.698 316.194 29.5906 315.22 27.2559C313.273 22.507 313.273 17.183 315.22 12.4342C316.195 10.0847 317.642 7.96076 319.472 6.19424C321.304 4.41071 323.469 3.00522 325.844 2.05796C328.246 1.10036 330.811 0.61501 333.397 0.628505C335.962 0.613651 338.505 1.0992 340.884 2.05796C343.255 3.00842 345.413 4.41945 347.235 6.20945C349.056 7.99703 350.513 10.1214 351.524 12.4646ZM346.759 19.8551C346.766 18.0439 346.422 16.2484 345.745 14.5682C345.079 12.9037 344.092 11.3864 342.84 10.1024C341.624 8.82728 340.159 7.81466 338.537 7.12694C336.908 6.4395 335.158 6.08533 333.389 6.08533C331.621 6.08533 329.871 6.4395 328.242 7.12694C326.609 7.80941 325.133 8.8205 323.908 10.0974C322.643 11.361 321.651 12.8705 320.993 14.5327C320.315 16.2249 319.971 18.0322 319.979 19.8551C319.97 21.6551 320.315 23.4393 320.993 25.1066C321.649 26.7677 322.637 28.2771 323.898 29.542C325.122 30.8217 326.596 31.8373 328.228 32.526C329.86 33.2147 331.616 33.562 333.387 33.5465C335.128 33.5582 336.853 33.2132 338.456 32.5327C341.76 31.1086 344.368 28.4355 345.709 25.0965C346.397 23.4343 346.753 21.6539 346.759 19.8551Z" fill="white"/>
<path d="M311.022 4.33914L310.693 10.3662C309.11 8.98395 307.299 7.88789 305.34 7.12708C303.449 6.40039 301.44 6.03252 299.414 6.04232C295.41 6.04232 292.154 7.32815 289.647 9.89981C287.112 12.4799 285.87 15.8102 285.87 19.8958C285.87 23.853 287.09 27.1208 289.53 29.6992C290.716 30.9555 292.154 31.9472 293.75 32.6093C295.346 33.2715 297.064 33.5891 298.791 33.5415C300.913 33.5512 303.018 33.1608 304.995 32.3909C307.06 31.5627 308.97 30.3903 310.642 28.9237V35.6452C309.056 36.7959 307.285 37.6684 305.406 38.2253C303.412 38.805 301.344 39.0869 299.267 39.0616C296.612 39.088 293.975 38.6258 291.487 37.6981C289.145 36.7887 287.016 35.4091 285.228 33.6446C283.441 31.88 282.034 29.7678 281.095 27.4385C280.12 25.023 279.63 22.4396 279.651 19.835C279.623 17.2298 280.114 14.6451 281.095 12.2315C282.049 9.89769 283.466 7.78107 285.259 6.00915C287.053 4.23724 289.187 2.84668 291.532 1.92124C293.964 0.970263 296.555 0.495309 299.166 0.522199C301.255 0.513445 303.333 0.829817 305.325 1.45996C307.355 2.13548 309.275 3.10556 311.022 4.33914Z" fill="white"/>
<path d="M273.33 1.43457H267.369V38.1086H273.33V1.43457Z" fill="white"/>
<path d="M247.027 21.4317H243.169V33.1208H245.197C246.765 33.1497 248.334 33.0667 249.891 32.8724C250.761 32.7643 251.596 32.4666 252.339 32.0005C253.083 31.5159 253.684 30.8424 254.083 30.049C254.479 29.2023 254.68 28.2771 254.671 27.3421C254.698 26.2831 254.45 25.2351 253.951 24.3008C253.463 23.4388 252.738 22.7351 251.862 22.2732C251.25 21.973 250.598 21.763 249.926 21.6497C248.968 21.4933 247.998 21.4204 247.027 21.4317ZM245.465 16.9153C248.309 16.9153 250.311 16.5402 251.492 15.7646C252.673 14.989 253.251 13.6812 253.251 11.8412C253.251 9.84065 252.709 8.42978 251.624 7.60861C250.539 6.80264 248.486 6.39205 245.465 6.39205H243.184V16.9153H245.465ZM260.85 27.6868C260.857 29.1346 260.591 30.5708 260.064 31.9194C259.587 33.2043 258.836 34.37 257.864 35.3359C256.832 36.3689 255.545 37.1104 254.133 37.4852C252.643 37.911 250.144 38.1087 246.651 38.1087H237.355V1.43459H246.601C248.558 1.38197 250.516 1.52461 252.445 1.86039C253.604 2.10725 254.699 2.58854 255.664 3.27463C256.811 4.12325 257.721 5.25264 258.305 6.55426C258.942 7.96297 259.262 9.49435 259.243 11.0403C259.299 12.7698 258.829 14.4756 257.894 15.9319C256.937 17.2726 255.546 18.2414 253.956 18.6742C254.951 18.804 255.911 19.1286 256.781 19.6296C257.651 20.1306 258.413 20.7981 259.025 21.5939C260.286 23.3684 260.923 25.5115 260.834 27.6868H260.85Z" fill="white"/>
<path d="M215.295 11.1822C215.097 11.9831 214.884 12.7383 214.656 13.4277C214.428 14.1171 214.21 14.7609 213.982 15.3489L210.205 23.7228H220.435L216.674 15.3387C216.461 14.7964 216.233 14.1881 215.999 13.4987C215.766 12.8093 215.523 12.0388 215.295 11.1822ZM215.244 0L232.985 38.1187H226.71L222.533 28.6702H208.021L203.753 38.1086H197.498L215.244 0Z" fill="white"/>
<path d="M200.042 15.6328V20.8741H185.529V38.1086H179.568V1.43457H200.042V6.50862H185.529V15.6328H200.042Z" fill="white"/>
<path d="M155.238 38.0783C150.489 37.9837 145.822 36.8231 141.582 34.6821L141.308 34.5452L145.485 23.9004L147.213 25.2335C149.279 26.826 151.794 27.727 154.401 27.8086C156.033 27.8086 157.22 27.0583 157.22 26.0243C157.22 25.7201 157.22 24.8128 155.192 24.5593L151.471 23.799C145.901 22.841 142.565 19.2014 142.565 14.0919C142.565 6.48842 149.231 1.00378 158.411 1.00378C162.299 1.00378 165.507 1.90099 169.456 4.10093L169.705 4.24286L165.974 13.8739L165.629 13.6458C162.917 11.821 160.819 11.0404 158.624 11.0404C156.88 11.0404 155.998 11.5473 155.998 12.6168C155.998 12.9919 156.181 13.5292 157.762 13.8841L161.858 14.7306C167.611 16.013 170.774 19.683 170.774 25.0713C170.774 32.6089 164.24 38.0783 155.238 38.0783ZM142.144 34.2208C146.22 36.2381 150.691 37.3302 155.238 37.4193C163.855 37.4193 170.11 32.2287 170.11 25.0764C170.11 19.9567 167.206 16.6061 161.716 15.3845L157.62 14.5278C157.052 14.4011 155.339 14.0209 155.339 12.6168C155.339 11.7804 155.765 10.3814 158.624 10.3814C160.864 10.3814 162.988 11.1265 165.654 12.8703L168.883 4.53686C165.148 2.50927 162.096 1.66782 158.411 1.66782C149.611 1.66782 143.204 6.89394 143.204 14.0919C143.204 18.8517 146.337 22.2428 151.583 23.1552L155.288 23.9156C157.412 24.1741 157.868 25.2082 157.868 26.0293C157.868 27.4436 156.404 28.4726 154.386 28.4726C151.629 28.3913 148.969 27.4423 146.783 25.7607L145.769 24.9648L142.144 34.2208Z" fill="white"/>
<path d="M119.668 38.0783C108.152 38.0783 100.112 30.4748 100.112 19.5917C100.112 8.47546 108.05 1.00378 119.881 1.00378C125.173 1.00378 129.563 2.40282 133.299 5.27693C135.468 7.04094 136.416 8.14091 137.496 10.1279L137.673 10.4625L125.138 15.131L124.996 14.9131C123.805 13.1186 122.517 12.4191 120.434 12.4191C116.526 12.4191 113.692 15.6582 113.692 20.1189C113.672 24.3971 116.267 27.403 119.993 27.403C122.167 27.403 123.835 26.516 124.555 25.0105H118.908V15.9776H139.316V16.302C139.412 24.2298 138.226 28.3002 134.789 31.8536C130.768 35.843 125.333 38.0806 119.668 38.0783ZM119.861 1.66782C108.446 1.66782 100.771 8.87084 100.771 19.5917C100.771 30.0896 108.542 37.4193 119.668 37.4193C125.156 37.4264 130.424 35.2593 134.318 31.3923C137.613 27.986 138.723 24.24 138.662 16.6365H119.567V24.3616H125.493L125.346 24.7925C124.682 26.8201 122.629 28.0721 119.993 28.0721C115.877 28.0721 112.998 24.8128 112.998 20.1443C112.998 15.2983 116.115 11.7855 120.403 11.7855C121.39 11.7245 122.374 11.9317 123.253 12.3851C124.131 12.8384 124.87 13.5211 125.391 14.3605L136.726 10.133C135.773 8.42984 134.855 7.41604 132.873 5.81931C129.259 3.01617 125.001 1.66782 119.861 1.66782Z" fill="white"/>
<path d="M100.416 37.4243H84.8039L79.6437 26.8961V37.4243H66.5303V1.50049H82.7003C86.6338 1.50049 88.9706 2.05301 91.3176 3.55343C95.2055 5.94598 97.1824 9.44865 97.1824 13.96C97.1824 16.7328 96.3156 19.3838 94.8709 21.0566C93.9535 22.0704 92.7775 22.7142 90.4609 23.4644C91.1343 23.833 91.7122 24.3537 92.1489 24.9851L100.416 37.4243ZM85.2095 36.7603H99.1796L91.5761 25.3399C91.1959 24.7823 90.8411 24.4883 89.7918 23.8192L89.6347 23.7229V23.0284L89.8679 22.9524C92.306 22.1921 93.477 21.5787 94.3488 20.6156C95.6921 19.0949 96.4981 16.5604 96.4981 13.96C96.4981 9.69196 94.6276 6.35657 90.9222 4.11101C88.6868 2.68663 86.4463 2.15946 82.6547 2.15946H67.1436V36.7603H78.9442V25.6086L79.6741 25.1777L79.7907 25.5984C79.836 25.774 79.9006 25.944 79.9833 26.1053C80.0442 26.2422 80.1202 26.3993 80.2064 26.6122L85.2095 36.7603Z" fill="white"/>
<path d="M81.0022 17.8885H78.9746V11.1823H81.5091C83.3846 11.1823 84.6975 12.5864 84.6975 14.5987C84.6975 16.6111 83.2579 17.8885 81.0022 17.8885ZM79.6437 17.2245H81.0022C82.9132 17.2245 84.0436 16.2512 84.0436 14.619C84.0436 12.9868 83.0298 11.8615 81.5091 11.8615H79.6234L79.6437 17.2245Z" fill="white"/>
<path d="M51.9973 37.4395H38.5493V1.55115H62.6523V12.196H52.0075V15.1462H61.4003V25.0814H51.9973V37.4395ZM39.2083 36.7755H51.3231V24.4325H60.7109V15.8153H51.3231V11.5472H61.968V2.18984H39.1576L39.2083 36.7755Z" fill="white"/>
<path d="M16.9304 38.0782C11.8614 38.0782 7.41085 36.7045 4.35932 34.2106C1.63221 32.0259 0 28.2596 0 24.1385V1.55115H13.3517V22.0197C13.3517 24.8482 14.4162 26.2219 16.6009 26.2219C19.0746 26.2219 19.8653 25.2081 19.8653 22.0197V1.55115H33.2018V23.1703C33.2018 32.3655 26.9923 38.0782 16.9304 38.0782ZM0.664036 2.18984V24.1385C0.664036 28.0619 2.18473 31.6355 4.77498 33.6986C7.71499 36.0962 12.0287 37.4192 16.9405 37.4192C26.5615 37.4192 32.5682 31.965 32.5682 23.1703V2.18984H20.5294V22.0197C20.5294 25.568 19.4649 26.8808 16.6009 26.8808C14.8166 26.8808 12.6927 26.0394 12.6927 22.0197V2.18984H0.664036Z" fill="white"/>
</svg>
