<svg width="131" height="56" viewBox="0 0 131 56" fill="none" xmlns="http://www.w3.org/2000/svg">
<rect width="131" height="56" rx="13" fill="white"/>
<path d="M49.6055 18H52L54.0313 22.9531H54.125L56.1563 18H58.5508V26H56.668V21.0859H56.6016L54.6797 25.9492H53.4766L51.5547 21.0586H51.4883V26H49.6055V18ZM61.0873 26H59.0092L61.7084 18H64.2826L66.9818 26H64.9037L63.0248 20.0156H62.9623L61.0873 26ZM60.81 22.8516H65.1537V24.3203H60.81V22.8516ZM74.2518 18V26H72.6111L69.4275 21.3828H69.3768V26H67.4432V18H69.1072L72.2557 22.6094H72.3221V18H74.2518ZM79.9074 18H81.8371V23.1602C81.8371 23.7565 81.6952 24.276 81.4113 24.7187C81.1275 25.1589 80.7316 25.5 80.2238 25.7422C79.716 25.9818 79.1262 26.1016 78.4543 26.1016C77.7746 26.1016 77.1809 25.9818 76.673 25.7422C76.1652 25.5 75.7707 25.1589 75.4895 24.7187C75.2082 24.276 75.0676 23.7565 75.0676 23.1602V18H77.0012V22.9922C77.0012 23.2682 77.0611 23.5143 77.1809 23.7305C77.3033 23.9466 77.4738 24.1159 77.6926 24.2383C77.9113 24.3607 78.1652 24.4219 78.4543 24.4219C78.7434 24.4219 78.996 24.3607 79.2121 24.2383C79.4309 24.1159 79.6014 23.9466 79.7238 23.7305C79.8462 23.5143 79.9074 23.2682 79.9074 22.9922V18ZM84.3795 26H82.3014L85.0006 18H87.5748L90.274 26H88.1959L86.317 20.0156H86.2545L84.3795 26ZM84.1022 22.8516H88.4459V24.3203H84.1022V22.8516ZM90.7354 26V18H92.6689V24.4297H95.9971V26H90.7354ZM52.5625 39H49.6055V31H52.5586C53.3737 31 54.0755 31.1602 54.6641 31.4805C55.2552 31.7982 55.7109 32.2565 56.0313 32.8555C56.3516 33.4518 56.5117 34.1654 56.5117 34.9961C56.5117 35.8294 56.3516 36.5456 56.0313 37.1445C55.7135 37.7435 55.2591 38.2031 54.668 38.5234C54.0768 38.8411 53.375 39 52.5625 39ZM51.5391 37.3516H52.4883C52.9362 37.3516 53.3151 37.276 53.625 37.125C53.9375 36.9714 54.1732 36.7227 54.332 36.3789C54.4935 36.0326 54.5742 35.5716 54.5742 34.9961C54.5742 34.4206 54.4935 33.9622 54.332 33.6211C54.1706 33.2773 53.9323 33.0299 53.6172 32.8789C53.3047 32.7253 52.9193 32.6484 52.4609 32.6484H51.5391V37.3516ZM64.7914 35C64.7914 35.8802 64.6221 36.6263 64.2836 37.2383C63.9451 37.8503 63.4867 38.3151 62.9086 38.6328C62.3331 38.9505 61.6872 39.1094 60.9711 39.1094C60.2523 39.1094 59.6052 38.9492 59.0297 38.6289C58.4542 38.3086 57.9971 37.8437 57.6586 37.2344C57.3227 36.6224 57.1547 35.8776 57.1547 35C57.1547 34.1198 57.3227 33.3737 57.6586 32.7617C57.9971 32.1497 58.4542 31.6849 59.0297 31.3672C59.6052 31.0495 60.2523 30.8906 60.9711 30.8906C61.6872 30.8906 62.3331 31.0495 62.9086 31.3672C63.4867 31.6849 63.9451 32.1497 64.2836 32.7617C64.6221 33.3737 64.7914 34.1198 64.7914 35ZM62.8148 35C62.8148 34.4792 62.7406 34.0391 62.5922 33.6797C62.4464 33.3203 62.2354 33.0482 61.9594 32.8633C61.6859 32.6784 61.3565 32.5859 60.9711 32.5859C60.5883 32.5859 60.2589 32.6784 59.9828 32.8633C59.7068 33.0482 59.4945 33.3203 59.3461 33.6797C59.2003 34.0391 59.1273 34.4792 59.1273 35C59.1273 35.5208 59.2003 35.9609 59.3461 36.3203C59.4945 36.6797 59.7068 36.9518 59.9828 37.1367C60.2589 37.3216 60.5883 37.4141 60.9711 37.4141C61.3565 37.4141 61.6859 37.3216 61.9594 37.1367C62.2354 36.9518 62.4464 36.6797 62.5922 36.3203C62.7406 35.9609 62.8148 35.5208 62.8148 35ZM69.2141 39H67.1359L69.8352 31H72.4094L75.1086 39H73.0305L71.1516 33.0156H71.0891L69.2141 39ZM68.9367 35.8516H73.2805V37.3203H68.9367V35.8516ZM75.5699 39V31H77.5035V37.4297H80.8316V39H75.5699ZM86.2725 31H88.2021V36.1602C88.2021 36.7565 88.0602 37.276 87.7764 37.7187C87.4925 38.1589 87.0967 38.5 86.5889 38.7422C86.0811 38.9818 85.4912 39.1016 84.8193 39.1016C84.1396 39.1016 83.5459 38.9818 83.0381 38.7422C82.5303 38.5 82.1357 38.1589 81.8545 37.7187C81.5732 37.276 81.4326 36.7565 81.4326 36.1602V31H83.3662V35.9922C83.3662 36.2682 83.4261 36.5143 83.5459 36.7305C83.6683 36.9466 83.8389 37.1159 84.0576 37.2383C84.2764 37.3607 84.5303 37.4219 84.8193 37.4219C85.1084 37.4219 85.361 37.3607 85.5771 37.2383C85.7959 37.1159 85.9665 36.9466 86.0889 36.7305C86.2113 36.5143 86.2725 36.2682 86.2725 35.9922V31ZM95.8227 31V39H94.182L90.9984 34.3828H90.9477V39H89.0141V31H90.6781L93.8266 35.6094H93.893V31H95.8227ZM104.189 35C104.189 35.8802 104.02 36.6263 103.681 37.2383C103.343 37.8503 102.885 38.3151 102.306 38.6328C101.731 38.9505 101.085 39.1094 100.369 39.1094C99.6502 39.1094 99.0031 38.9492 98.4275 38.6289C97.852 38.3086 97.395 37.8437 97.0564 37.2344C96.7205 36.6224 96.5525 35.8776 96.5525 35C96.5525 34.1198 96.7205 33.3737 97.0564 32.7617C97.395 32.1497 97.852 31.6849 98.4275 31.3672C99.0031 31.0495 99.6502 30.8906 100.369 30.8906C101.085 30.8906 101.731 31.0495 102.306 31.3672C102.885 31.6849 103.343 32.1497 103.681 32.7617C104.02 33.3737 104.189 34.1198 104.189 35ZM102.213 35C102.213 34.4792 102.138 34.0391 101.99 33.6797C101.844 33.3203 101.633 33.0482 101.357 32.8633C101.084 32.6784 100.754 32.5859 100.369 32.5859C99.9861 32.5859 99.6567 32.6784 99.3807 32.8633C99.1046 33.0482 98.8924 33.3203 98.7439 33.6797C98.5981 34.0391 98.5252 34.4792 98.5252 35C98.5252 35.5208 98.5981 35.9609 98.7439 36.3203C98.8924 36.6797 99.1046 36.9518 99.3807 37.1367C99.6567 37.3216 99.9861 37.4141 100.369 37.4141C100.754 37.4141 101.084 37.3216 101.357 37.1367C101.633 36.9518 101.844 36.6797 101.99 36.3203C102.138 35.9609 102.213 35.5208 102.213 35Z" fill="#001E50"/>
<path d="M43.4 30.7188V15.5312C43.4 14.1333 42.277 13 40.8929 13H25.0143C22.2449 13 20 15.2665 20 18.0625V34.9375C20 37.7335 22.2449 40 25.0143 40H41.7286C42.6515 40 43.4 39.2443 43.4 38.36C43.4 37.7419 43.0549 37.2251 42.5643 36.9309V32.6404C43.0762 32.132 43.4 31.4676 43.4 30.7188ZM27.4744 19.75H37.503C38.0096 19.75 38.3857 20.1297 38.3857 20.5938C38.3857 21.0578 38.0096 21.4375 37.55 21.4375H27.4744C27.0618 21.4375 26.6857 21.0578 26.6857 20.5938C26.6857 20.1297 27.0618 19.75 27.4744 19.75ZM27.4744 23.125H37.503C38.0096 23.125 38.3857 23.5047 38.3857 23.9688C38.3857 24.4328 38.0096 24.8125 37.55 24.8125H27.4744C27.0618 24.8125 26.6857 24.4328 26.6857 23.9688C26.6857 23.5047 27.0618 23.125 27.4744 23.125ZM40.0571 36.625H25.0143C24.0913 36.625 23.3429 35.8693 23.3429 34.9375C23.3429 34.0057 24.0913 33.25 25.0143 33.25H40.0571V36.625Z" fill="#3F1055"/>
</svg>
