<svg width="131" height="56" viewBox="0 0 131 56" fill="none" xmlns="http://www.w3.org/2000/svg">
<rect width="131" height="56" rx="13" fill="white"/>
<path d="M49.6055 26V18H52.9102C53.5091 18 54.026 18.1172 54.4609 18.3516C54.8984 18.5833 55.2357 18.9076 55.4727 19.3242C55.7096 19.7383 55.8281 20.2201 55.8281 20.7695C55.8281 21.3216 55.707 21.8047 55.4648 22.2188C55.2253 22.6302 54.8828 22.9492 54.4375 23.1758C53.9922 23.4023 53.4635 23.5156 52.8516 23.5156H50.8125V21.9922H52.4922C52.7839 21.9922 53.0273 21.9414 53.2227 21.8398C53.4206 21.7383 53.5703 21.5964 53.6719 21.4141C53.7734 21.2292 53.8242 21.0143 53.8242 20.7695C53.8242 20.5221 53.7734 20.3086 53.6719 20.1289C53.5703 19.9466 53.4206 19.806 53.2227 19.707C53.0247 19.6081 52.7813 19.5586 52.4922 19.5586H51.5391V26H49.6055ZM56.3812 26V18H59.6859C60.2849 18 60.8018 18.1081 61.2367 18.3242C61.6742 18.5378 62.0115 18.8451 62.2484 19.2461C62.4854 19.6445 62.6039 20.1172 62.6039 20.6641C62.6039 21.2187 62.4828 21.6901 62.2406 22.0781C61.9984 22.4635 61.6547 22.7578 61.2094 22.9609C60.7641 23.1615 60.2367 23.2617 59.6273 23.2617H57.5375V21.7383H59.268C59.5596 21.7383 59.8031 21.7005 59.9984 21.625C60.1964 21.5469 60.3461 21.4297 60.4477 21.2734C60.5492 21.1146 60.6 20.9115 60.6 20.6641C60.6 20.4167 60.5492 20.2122 60.4477 20.0508C60.3461 19.8867 60.1964 19.7643 59.9984 19.6836C59.8005 19.6003 59.557 19.5586 59.268 19.5586H58.3148V26H56.3812ZM60.8852 22.3437L62.8773 26H60.768L58.8148 22.3437H60.8852ZM70.8152 22C70.8152 22.8802 70.646 23.6263 70.3074 24.2383C69.9689 24.8503 69.5105 25.3151 68.9324 25.6328C68.3569 25.9505 67.7111 26.1094 66.9949 26.1094C66.2762 26.1094 65.629 25.9492 65.0535 25.6289C64.478 25.3086 64.021 24.8437 63.6824 24.2344C63.3465 23.6224 63.1785 22.8776 63.1785 22C63.1785 21.1198 63.3465 20.3737 63.6824 19.7617C64.021 19.1497 64.478 18.6849 65.0535 18.3672C65.629 18.0495 66.2762 17.8906 66.9949 17.8906C67.7111 17.8906 68.3569 18.0495 68.9324 18.3672C69.5105 18.6849 69.9689 19.1497 70.3074 19.7617C70.646 20.3737 70.8152 21.1198 70.8152 22ZM68.8387 22C68.8387 21.4792 68.7645 21.0391 68.616 20.6797C68.4702 20.3203 68.2592 20.0482 67.9832 19.8633C67.7098 19.6784 67.3803 19.5859 66.9949 19.5859C66.6121 19.5859 66.2827 19.6784 66.0066 19.8633C65.7306 20.0482 65.5184 20.3203 65.3699 20.6797C65.2241 21.0391 65.1512 21.4792 65.1512 22C65.1512 22.5208 65.2241 22.9609 65.3699 23.3203C65.5184 23.6797 65.7306 23.9518 66.0066 24.1367C66.2827 24.3216 66.6121 24.4141 66.9949 24.4141C67.3803 24.4141 67.7098 24.3216 67.9832 24.1367C68.2592 23.9518 68.4702 23.6797 68.616 23.3203C68.7645 22.9609 68.8387 22.5208 68.8387 22ZM74.5012 26H71.5441V18H74.4973C75.3124 18 76.0142 18.1602 76.6027 18.4805C77.1939 18.7982 77.6496 19.2565 77.9699 19.8555C78.2902 20.4518 78.4504 21.1654 78.4504 21.9961C78.4504 22.8294 78.2902 23.5456 77.9699 24.1445C77.6522 24.7435 77.1978 25.2031 76.6066 25.5234C76.0155 25.8411 75.3137 26 74.5012 26ZM73.4777 24.3516H74.427C74.8749 24.3516 75.2538 24.276 75.5637 24.125C75.8762 23.9714 76.1118 23.7227 76.2707 23.3789C76.4322 23.0326 76.5129 22.5716 76.5129 21.9961C76.5129 21.4206 76.4322 20.9622 76.2707 20.6211C76.1092 20.2773 75.871 20.0299 75.5559 19.8789C75.2434 19.7253 74.8579 19.6484 74.3996 19.6484H73.4777V24.3516ZM84.0191 18H85.9488V23.1602C85.9488 23.7565 85.8069 24.276 85.523 24.7187C85.2392 25.1589 84.8434 25.5 84.3355 25.7422C83.8277 25.9818 83.2379 26.1016 82.566 26.1016C81.8863 26.1016 81.2926 25.9818 80.7848 25.7422C80.277 25.5 79.8824 25.1589 79.6012 24.7187C79.3199 24.276 79.1793 23.7565 79.1793 23.1602V18H81.1129V22.9922C81.1129 23.2682 81.1728 23.5143 81.2926 23.7305C81.415 23.9466 81.5855 24.1159 81.8043 24.2383C82.023 24.3607 82.277 24.4219 82.566 24.4219C82.8551 24.4219 83.1077 24.3607 83.3238 24.2383C83.5426 24.1159 83.7132 23.9466 83.8355 23.7305C83.9579 23.5143 84.0191 23.2682 84.0191 22.9922V18ZM94.0225 20.8984H92.0693C92.0433 20.6979 91.9899 20.5169 91.9092 20.3555C91.8285 20.194 91.7217 20.056 91.5889 19.9414C91.4561 19.8268 91.2985 19.7396 91.1162 19.6797C90.9365 19.6172 90.7373 19.5859 90.5186 19.5859C90.1305 19.5859 89.7959 19.681 89.5146 19.8711C89.236 20.0612 89.0212 20.3359 88.8701 20.6953C88.7217 21.0547 88.6475 21.4896 88.6475 22C88.6475 22.5312 88.723 22.9766 88.874 23.3359C89.0277 23.6927 89.2425 23.9622 89.5186 24.1445C89.7972 24.3242 90.1266 24.4141 90.5068 24.4141C90.7204 24.4141 90.9144 24.3867 91.0889 24.332C91.266 24.2773 91.4209 24.1979 91.5537 24.0938C91.6891 23.987 91.7998 23.8581 91.8857 23.707C91.9743 23.5534 92.0355 23.3802 92.0693 23.1875L94.0225 23.1992C93.9886 23.5534 93.8857 23.9023 93.7139 24.2461C93.5446 24.5898 93.3115 24.9036 93.0146 25.1875C92.7178 25.4687 92.3558 25.6927 91.9287 25.8594C91.5042 26.026 91.0173 26.1094 90.4678 26.1094C89.7438 26.1094 89.0954 25.9505 88.5225 25.6328C87.9521 25.3125 87.5016 24.8464 87.1709 24.2344C86.8402 23.6224 86.6748 22.8776 86.6748 22C86.6748 21.1198 86.8428 20.3737 87.1787 19.7617C87.5146 19.1497 87.9691 18.6849 88.542 18.3672C89.1149 18.0495 89.7568 17.8906 90.4678 17.8906C90.9521 17.8906 91.4001 17.9583 91.8115 18.0938C92.223 18.2266 92.585 18.4219 92.8975 18.6797C93.21 18.9349 93.4639 19.2487 93.6592 19.6211C93.8545 19.9935 93.9756 20.4193 94.0225 20.8984ZM90.0498 25.957H90.8154L90.7529 26.3086C91.0394 26.3503 91.2686 26.4531 91.4404 26.6172C91.6123 26.7839 91.6995 27 91.7021 27.2656C91.7048 27.6719 91.5107 27.9922 91.1201 28.2266C90.7321 28.4635 90.1917 28.582 89.499 28.582L89.4912 27.7969C89.848 27.7969 90.124 27.7565 90.3193 27.6758C90.5146 27.5951 90.6162 27.4727 90.624 27.3086C90.6318 27.1576 90.5732 27.0365 90.4482 26.9453C90.3232 26.8568 90.1292 26.7956 89.8662 26.7617L90.0498 25.957ZM96.2553 26H94.1771L96.8764 18H99.4506L102.15 26H100.072L98.1928 20.0156H98.1303L96.2553 26ZM95.9779 22.8516H100.322V24.3203H95.9779V22.8516ZM97.0717 17.2148L96.0795 17.2109C96.0795 16.6797 96.2045 16.2786 96.4545 16.0078C96.7071 15.737 97.0157 15.6016 97.3803 15.6016C97.5704 15.6016 97.7331 15.6328 97.8686 15.6953C98.0066 15.7552 98.129 15.8255 98.2357 15.9062C98.3425 15.987 98.4415 16.0586 98.5326 16.1211C98.6238 16.181 98.7214 16.2109 98.8256 16.2109C98.9766 16.2109 99.0873 16.1562 99.1576 16.0469C99.2305 15.9375 99.2683 15.7904 99.2709 15.6055L100.247 15.6172C100.242 16.1406 100.113 16.5404 99.8607 16.8164C99.6107 17.0898 99.3061 17.2292 98.9467 17.2344C98.7488 17.237 98.5808 17.207 98.4428 17.1445C98.3074 17.082 98.1889 17.0104 98.0873 16.9297C97.9883 16.849 97.8933 16.7773 97.8021 16.7148C97.711 16.6523 97.6107 16.6211 97.5014 16.6211C97.3712 16.6211 97.267 16.6732 97.1889 16.7773C97.1107 16.8815 97.0717 17.0273 97.0717 17.2148ZM109.786 22C109.786 22.8802 109.617 23.6263 109.278 24.2383C108.94 24.8503 108.481 25.3151 107.903 25.6328C107.328 25.9505 106.682 26.1094 105.966 26.1094C105.247 26.1094 104.6 25.9492 104.024 25.6289C103.449 25.3086 102.992 24.8437 102.653 24.2344C102.317 23.6224 102.149 22.8776 102.149 22C102.149 21.1198 102.317 20.3737 102.653 19.7617C102.992 19.1497 103.449 18.6849 104.024 18.3672C104.6 18.0495 105.247 17.8906 105.966 17.8906C106.682 17.8906 107.328 18.0495 107.903 18.3672C108.481 18.6849 108.94 19.1497 109.278 19.7617C109.617 20.3737 109.786 21.1198 109.786 22ZM107.809 22C107.809 21.4792 107.735 21.0391 107.587 20.6797C107.441 20.3203 107.23 20.0482 106.954 19.8633C106.68 19.6784 106.351 19.5859 105.966 19.5859C105.583 19.5859 105.253 19.6784 104.977 19.8633C104.701 20.0482 104.489 20.3203 104.341 20.6797C104.195 21.0391 104.122 21.4792 104.122 22C104.122 22.5208 104.195 22.9609 104.341 23.3203C104.489 23.6797 104.701 23.9518 104.977 24.1367C105.253 24.3216 105.583 24.4141 105.966 24.4141C106.351 24.4141 106.68 24.3216 106.954 24.1367C107.23 23.9518 107.441 23.6797 107.587 23.3203C107.735 22.9609 107.809 22.5208 107.809 22ZM52.5625 39H49.6055V31H52.5586C53.3737 31 54.0755 31.1602 54.6641 31.4805C55.2552 31.7982 55.7109 32.2565 56.0313 32.8555C56.3516 33.4518 56.5117 34.1654 56.5117 34.9961C56.5117 35.8294 56.3516 36.5456 56.0313 37.1445C55.7135 37.7435 55.2591 38.2031 54.668 38.5234C54.0768 38.8411 53.375 39 52.5625 39ZM51.5391 37.3516H52.4883C52.9362 37.3516 53.3151 37.276 53.625 37.125C53.9375 36.9714 54.1732 36.7227 54.332 36.3789C54.4935 36.0326 54.5742 35.5716 54.5742 34.9961C54.5742 34.4206 54.4935 33.9622 54.332 33.6211C54.1706 33.2773 53.9323 33.0299 53.6172 32.8789C53.3047 32.7253 52.9193 32.6484 52.4609 32.6484H51.5391V37.3516ZM64.7914 35C64.7914 35.8802 64.6221 36.6263 64.2836 37.2383C63.9451 37.8503 63.4867 38.3151 62.9086 38.6328C62.3331 38.9505 61.6872 39.1094 60.9711 39.1094C60.2523 39.1094 59.6052 38.9492 59.0297 38.6289C58.4542 38.3086 57.9971 37.8437 57.6586 37.2344C57.3227 36.6224 57.1547 35.8776 57.1547 35C57.1547 34.1198 57.3227 33.3737 57.6586 32.7617C57.9971 32.1497 58.4542 31.6849 59.0297 31.3672C59.6052 31.0495 60.2523 30.8906 60.9711 30.8906C61.6872 30.8906 62.3331 31.0495 62.9086 31.3672C63.4867 31.6849 63.9451 32.1497 64.2836 32.7617C64.6221 33.3737 64.7914 34.1198 64.7914 35ZM62.8148 35C62.8148 34.4792 62.7406 34.0391 62.5922 33.6797C62.4464 33.3203 62.2354 33.0482 61.9594 32.8633C61.6859 32.6784 61.3565 32.5859 60.9711 32.5859C60.5883 32.5859 60.2589 32.6784 59.9828 32.8633C59.7068 33.0482 59.4945 33.3203 59.3461 33.6797C59.2003 34.0391 59.1273 34.4792 59.1273 35C59.1273 35.5208 59.2003 35.9609 59.3461 36.3203C59.4945 36.6797 59.7068 36.9518 59.9828 37.1367C60.2589 37.3216 60.5883 37.4141 60.9711 37.4141C61.3565 37.4141 61.6859 37.3216 61.9594 37.1367C62.2354 36.9518 62.4464 36.6797 62.5922 36.3203C62.7406 35.9609 62.8148 35.5208 62.8148 35ZM69.8445 33.3984C69.8185 33.112 69.7026 32.8893 69.4969 32.7305C69.2937 32.569 69.0034 32.4883 68.6258 32.4883C68.3758 32.4883 68.1674 32.5208 68.0008 32.5859C67.8341 32.651 67.7091 32.7409 67.6258 32.8555C67.5424 32.9674 67.4995 33.0964 67.4969 33.2422C67.4917 33.362 67.5151 33.4674 67.5672 33.5586C67.6219 33.6497 67.7 33.7305 67.8016 33.8008C67.9057 33.8685 68.0307 33.9284 68.1766 33.9805C68.3224 34.0326 68.4865 34.0781 68.6687 34.1172L69.3562 34.2734C69.7521 34.3594 70.101 34.474 70.4031 34.6172C70.7078 34.7604 70.963 34.931 71.1687 35.1289C71.3771 35.3268 71.5346 35.5547 71.6414 35.8125C71.7482 36.0703 71.8029 36.3594 71.8055 36.6797C71.8029 37.1849 71.6753 37.6185 71.4227 37.9805C71.1701 38.3424 70.8068 38.6198 70.3328 38.8125C69.8615 39.0052 69.2924 39.1016 68.6258 39.1016C67.9565 39.1016 67.3732 39.0013 66.8758 38.8008C66.3784 38.6003 65.9917 38.2956 65.7156 37.8867C65.4396 37.4779 65.2977 36.9609 65.2898 36.3359H67.1414C67.157 36.5938 67.226 36.8086 67.3484 36.9805C67.4708 37.1523 67.6388 37.2826 67.8523 37.3711C68.0685 37.4596 68.3185 37.5039 68.6023 37.5039C68.8628 37.5039 69.0841 37.4687 69.2664 37.3984C69.4513 37.3281 69.5932 37.2305 69.6922 37.1055C69.7911 36.9805 69.8419 36.8372 69.8445 36.6758C69.8419 36.5247 69.7951 36.3958 69.7039 36.2891C69.6128 36.1797 69.4721 36.0859 69.282 36.0078C69.0945 35.9271 68.8549 35.8529 68.5633 35.7852L67.7273 35.5898C67.0346 35.431 66.4891 35.1745 66.0906 34.8203C65.6922 34.4635 65.4943 33.9818 65.4969 33.375C65.4943 32.8802 65.6271 32.4466 65.8953 32.0742C66.1635 31.7018 66.5346 31.4115 67.0086 31.2031C67.4826 30.9948 68.0229 30.8906 68.6297 30.8906C69.2495 30.8906 69.7872 30.9961 70.243 31.207C70.7013 31.4154 71.0568 31.7083 71.3094 32.0859C71.562 32.4635 71.6909 32.901 71.6961 33.3984H69.8445ZM76.0758 39H73.9977L76.6969 31H79.2711L81.9703 39H79.8922L78.0133 33.0156H77.9508L76.0758 39ZM75.7984 35.8516H80.1422V37.3203H75.7984V35.8516ZM82.4316 39V31H84.3652V37.4297H87.6934V39H82.4316ZM93.1342 31H95.0639V36.1602C95.0639 36.7565 94.9219 37.276 94.6381 37.7187C94.3542 38.1589 93.9584 38.5 93.4506 38.7422C92.9428 38.9818 92.3529 39.1016 91.6811 39.1016C91.0014 39.1016 90.4076 38.9818 89.8998 38.7422C89.392 38.5 88.9975 38.1589 88.7162 37.7187C88.435 37.276 88.2943 36.7565 88.2943 36.1602V31H90.2279V35.9922C90.2279 36.2682 90.2878 36.5143 90.4076 36.7305C90.53 36.9466 90.7006 37.1159 90.9193 37.2383C91.1381 37.3607 91.392 37.4219 91.6811 37.4219C91.9701 37.4219 92.2227 37.3607 92.4389 37.2383C92.6576 37.1159 92.8282 36.9466 92.9506 36.7305C93.073 36.5143 93.1342 36.2682 93.1342 35.9922V31ZM102.684 31V39H101.044L97.8602 34.3828H97.8094V39H95.8758V31H97.5398L100.688 35.6094H100.755V31H102.684ZM111.051 35C111.051 35.8802 110.882 36.6263 110.543 37.2383C110.205 37.8503 109.746 38.3151 109.168 38.6328C108.593 38.9505 107.947 39.1094 107.231 39.1094C106.512 39.1094 105.865 38.9492 105.289 38.6289C104.714 38.3086 104.257 37.8437 103.918 37.2344C103.582 36.6224 103.414 35.8776 103.414 35C103.414 34.1198 103.582 33.3737 103.918 32.7617C104.257 32.1497 104.714 31.6849 105.289 31.3672C105.865 31.0495 106.512 30.8906 107.231 30.8906C107.947 30.8906 108.593 31.0495 109.168 31.3672C109.746 31.6849 110.205 32.1497 110.543 32.7617C110.882 33.3737 111.051 34.1198 111.051 35ZM109.074 35C109.074 34.4792 109 34.0391 108.852 33.6797C108.706 33.3203 108.495 33.0482 108.219 32.8633C107.946 32.6784 107.616 32.5859 107.231 32.5859C106.848 32.5859 106.518 32.6784 106.242 32.8633C105.966 33.0482 105.754 33.3203 105.606 33.6797C105.46 34.0391 105.387 34.4792 105.387 35C105.387 35.5208 105.46 35.9609 105.606 36.3203C105.754 36.6797 105.966 36.9518 106.242 37.1367C106.518 37.3216 106.848 37.4141 107.231 37.4141C107.616 37.4141 107.946 37.3216 108.219 37.1367C108.495 36.9518 108.706 36.6797 108.852 36.3203C109 35.9609 109.074 35.5208 109.074 35ZM116.104 33.3984C116.078 33.112 115.962 32.8893 115.756 32.7305C115.553 32.569 115.263 32.4883 114.885 32.4883C114.635 32.4883 114.427 32.5208 114.26 32.5859C114.094 32.651 113.969 32.7409 113.885 32.8555C113.802 32.9674 113.759 33.0964 113.756 33.2422C113.751 33.362 113.775 33.4674 113.827 33.5586C113.881 33.6497 113.96 33.7305 114.061 33.8008C114.165 33.8685 114.29 33.9284 114.436 33.9805C114.582 34.0326 114.746 34.0781 114.928 34.1172L115.616 34.2734C116.012 34.3594 116.361 34.474 116.663 34.6172C116.967 34.7604 117.223 34.931 117.428 35.1289C117.637 35.3268 117.794 35.5547 117.901 35.8125C118.008 36.0703 118.062 36.3594 118.065 36.6797C118.062 37.1849 117.935 37.6185 117.682 37.9805C117.43 38.3424 117.066 38.6198 116.592 38.8125C116.121 39.0052 115.552 39.1016 114.885 39.1016C114.216 39.1016 113.633 39.0013 113.135 38.8008C112.638 38.6003 112.251 38.2956 111.975 37.8867C111.699 37.4779 111.557 36.9609 111.549 36.3359H113.401C113.417 36.5938 113.486 36.8086 113.608 36.9805C113.73 37.1523 113.898 37.2826 114.112 37.3711C114.328 37.4596 114.578 37.5039 114.862 37.5039C115.122 37.5039 115.344 37.4687 115.526 37.3984C115.711 37.3281 115.853 37.2305 115.952 37.1055C116.051 36.9805 116.101 36.8372 116.104 36.6758C116.101 36.5247 116.055 36.3958 115.963 36.2891C115.872 36.1797 115.732 36.0859 115.542 36.0078C115.354 35.9271 115.115 35.8529 114.823 35.7852L113.987 35.5898C113.294 35.431 112.749 35.1745 112.35 34.8203C111.952 34.4635 111.754 33.9818 111.756 33.375C111.754 32.8802 111.887 32.4466 112.155 32.0742C112.423 31.7018 112.794 31.4115 113.268 31.2031C113.742 30.9948 114.282 30.8906 114.889 30.8906C115.509 30.8906 116.047 30.9961 116.503 31.207C116.961 31.4154 117.316 31.7083 117.569 32.0859C117.822 32.4635 117.95 32.901 117.956 33.3984H116.104Z" fill="#001E50"/>
<path d="M43.9908 20.3848L29.4766 15.1891C28.7717 14.937 28.0031 14.937 27.2982 15.1891L12.824 20.3848C12.3305 20.5645 12 21.0368 12 21.5708C12 22.1047 12.3305 22.5796 12.824 22.7563L15.9055 23.8606C15.2951 24.6718 14.8654 25.6144 14.6451 26.6305C14.0562 26.8795 13.6429 27.4648 13.6429 28.1425C13.6429 28.6535 13.8901 29.0918 14.2559 29.3931L12.9811 37.043C12.8974 37.5431 13.2835 38 13.7913 38H16.7804C17.288 38 17.6742 37.5441 17.5906 37.0435L16.3157 29.3937C16.6818 29.0923 16.9288 28.6097 16.9288 28.1425C16.9288 27.6142 16.6631 27.1654 16.2757 26.8646C16.494 25.9528 16.937 25.1282 17.5562 24.45L27.3418 27.953C28.0467 28.2051 28.8153 28.2051 29.5202 27.953L44.0344 22.7573C44.5298 22.5771 44.8584 22.1047 44.8584 21.5708C44.8584 21.0368 44.5298 20.5645 43.9908 20.3848ZM30.0259 29.4979C29.5433 29.6878 28.9888 29.7854 28.4292 29.7854C27.8686 29.7854 27.3156 29.6895 26.7863 29.5002L19.3315 26.8333L18.5717 34.1648C18.5717 36.2852 22.9408 38 28.4292 38C33.8252 38 38.2867 36.2852 38.2867 34.1663L37.5279 26.8297L30.0259 29.4979Z" fill="#3F1055"/>
</svg>
