<svg width="131" height="56" viewBox="0 0 131 56" fill="none" xmlns="http://www.w3.org/2000/svg">
<rect width="131" height="56" rx="13" fill="white"/>
<path d="M61.9297 26.3984C61.9036 26.112 61.7878 25.8893 61.582 25.7305C61.3789 25.569 61.0885 25.4883 60.7109 25.4883C60.4609 25.4883 60.2526 25.5208 60.0859 25.5859C59.9193 25.651 59.7943 25.7409 59.7109 25.8555C59.6276 25.9674 59.5846 26.0964 59.582 26.2422C59.5768 26.362 59.6003 26.4674 59.6523 26.5586C59.707 26.6497 59.7852 26.7305 59.8867 26.8008C59.9909 26.8685 60.1159 26.9284 60.2617 26.9805C60.4076 27.0326 60.5716 27.0781 60.7539 27.1172L61.4414 27.2734C61.8372 27.3594 62.1862 27.474 62.4883 27.6172C62.793 27.7604 63.0482 27.931 63.2539 28.1289C63.4622 28.3268 63.6198 28.5547 63.7266 28.8125C63.8333 29.0703 63.888 29.3594 63.8906 29.6797C63.888 30.1849 63.7604 30.6185 63.5078 30.9805C63.2552 31.3424 62.8919 31.6198 62.418 31.8125C61.9466 32.0052 61.3776 32.1016 60.7109 32.1016C60.0417 32.1016 59.4583 32.0013 58.9609 31.8008C58.4635 31.6003 58.0768 31.2956 57.8008 30.8867C57.5247 30.4779 57.3828 29.9609 57.375 29.3359H59.2266C59.2422 29.5938 59.3112 29.8086 59.4336 29.9805C59.556 30.1523 59.724 30.2826 59.9375 30.3711C60.1536 30.4596 60.4036 30.5039 60.6875 30.5039C60.9479 30.5039 61.1693 30.4687 61.3516 30.3984C61.5365 30.3281 61.6784 30.2305 61.7773 30.1055C61.8763 29.9805 61.9271 29.8372 61.9297 29.6758C61.9271 29.5247 61.8802 29.3958 61.7891 29.2891C61.6979 29.1797 61.5573 29.0859 61.3672 29.0078C61.1797 28.9271 60.9401 28.8529 60.6484 28.7852L59.8125 28.5898C59.1198 28.431 58.5742 28.1745 58.1758 27.8203C57.7773 27.4635 57.5794 26.9818 57.582 26.375C57.5794 25.8802 57.7122 25.4466 57.9805 25.0742C58.2487 24.7018 58.6198 24.4115 59.0938 24.2031C59.5677 23.9948 60.1081 23.8906 60.7148 23.8906C61.3346 23.8906 61.8724 23.9961 62.3281 24.207C62.7865 24.4154 63.1419 24.7083 63.3945 25.0859C63.6471 25.4635 63.776 25.901 63.7813 26.3984H61.9297ZM64.4672 32V24H70.0453V25.5703H66.4008V27.2109H69.7602V28.7852H66.4008V30.4297H70.0453V32H64.4672ZM70.8562 32V24H74.1609C74.7599 24 75.2768 24.1081 75.7117 24.3242C76.1492 24.5378 76.4865 24.8451 76.7234 25.2461C76.9604 25.6445 77.0789 26.1172 77.0789 26.6641C77.0789 27.2187 76.9578 27.6901 76.7156 28.0781C76.4734 28.4635 76.1297 28.7578 75.6844 28.9609C75.2391 29.1615 74.7117 29.2617 74.1023 29.2617H72.0125V27.7383H73.743C74.0346 27.7383 74.2781 27.7005 74.4734 27.625C74.6714 27.5469 74.8211 27.4297 74.9227 27.2734C75.0242 27.1146 75.075 26.9115 75.075 26.6641C75.075 26.4167 75.0242 26.2122 74.9227 26.0508C74.8211 25.8867 74.6714 25.7643 74.4734 25.6836C74.2755 25.6003 74.032 25.5586 73.743 25.5586H72.7898V32H70.8562ZM75.3602 28.3437L77.3523 32H75.243L73.2898 28.3437H75.3602ZM79.3195 24L81.1086 29.8594H81.175L82.9641 24H85.1281L82.4289 32H79.8547L77.1555 24H79.3195ZM87.523 24V32H85.5895V24H87.523ZM95.5986 26.8984H93.6455C93.6195 26.6979 93.5661 26.5169 93.4854 26.3555C93.4046 26.194 93.2979 26.056 93.165 25.9414C93.0322 25.8268 92.8747 25.7396 92.6924 25.6797C92.5127 25.6172 92.3135 25.5859 92.0947 25.5859C91.7067 25.5859 91.3721 25.681 91.0908 25.8711C90.8122 26.0612 90.5973 26.3359 90.4463 26.6953C90.2979 27.0547 90.2236 27.4896 90.2236 28C90.2236 28.5312 90.2992 28.9766 90.4502 29.3359C90.6038 29.6927 90.8187 29.9622 91.0947 30.1445C91.3734 30.3242 91.7028 30.4141 92.083 30.4141C92.2965 30.4141 92.4906 30.3867 92.665 30.332C92.8421 30.2773 92.9971 30.1979 93.1299 30.0938C93.2653 29.987 93.376 29.8581 93.4619 29.707C93.5505 29.5534 93.6117 29.3802 93.6455 29.1875L95.5986 29.1992C95.5648 29.5534 95.4619 29.9023 95.29 30.2461C95.1208 30.5898 94.8877 30.9036 94.5908 31.1875C94.2939 31.4687 93.932 31.6927 93.5049 31.8594C93.0804 32.026 92.5934 32.1094 92.0439 32.1094C91.32 32.1094 90.6715 31.9505 90.0986 31.6328C89.5283 31.3125 89.0778 30.8464 88.7471 30.2344C88.4163 29.6224 88.251 28.8776 88.251 28C88.251 27.1198 88.4189 26.3737 88.7549 25.7617C89.0908 25.1497 89.5452 24.6849 90.1182 24.3672C90.6911 24.0495 91.333 23.8906 92.0439 23.8906C92.5283 23.8906 92.9762 23.9583 93.3877 24.0938C93.7992 24.2266 94.1611 24.4219 94.4736 24.6797C94.7861 24.9349 95.04 25.2487 95.2354 25.6211C95.4307 25.9935 95.5518 26.4193 95.5986 26.8984ZM91.626 31.957H92.3916L92.3291 32.3086C92.6156 32.3503 92.8447 32.4531 93.0166 32.6172C93.1885 32.7839 93.2757 33 93.2783 33.2656C93.2809 33.6719 93.0869 33.9922 92.6963 34.2266C92.3083 34.4635 91.7679 34.582 91.0752 34.582L91.0674 33.7969C91.4242 33.7969 91.7002 33.7565 91.8955 33.6758C92.0908 33.5951 92.1924 33.4727 92.2002 33.3086C92.208 33.1576 92.1494 33.0365 92.0244 32.9453C91.8994 32.8568 91.7054 32.7956 91.4424 32.7617L91.626 31.957ZM103.856 28C103.856 28.8802 103.687 29.6263 103.348 30.2383C103.01 30.8503 102.551 31.3151 101.973 31.6328C101.398 31.9505 100.752 32.1094 100.036 32.1094C99.3168 32.1094 98.6697 31.9492 98.0941 31.6289C97.5186 31.3086 97.0616 30.8437 96.723 30.2344C96.3871 29.6224 96.2191 28.8776 96.2191 28C96.2191 27.1198 96.3871 26.3737 96.723 25.7617C97.0616 25.1497 97.5186 24.6849 98.0941 24.3672C98.6697 24.0495 99.3168 23.8906 100.036 23.8906C100.752 23.8906 101.398 24.0495 101.973 24.3672C102.551 24.6849 103.01 25.1497 103.348 25.7617C103.687 26.3737 103.856 27.1198 103.856 28ZM101.879 28C101.879 27.4792 101.805 27.0391 101.657 26.6797C101.511 26.3203 101.3 26.0482 101.024 25.8633C100.75 25.6784 100.421 25.5859 100.036 25.5859C99.6527 25.5859 99.3233 25.6784 99.0473 25.8633C98.7712 26.0482 98.559 26.3203 98.4105 26.6797C98.2647 27.0391 98.1918 27.4792 98.1918 28C98.1918 28.5208 98.2647 28.9609 98.4105 29.3203C98.559 29.6797 98.7712 29.9518 99.0473 30.1367C99.3233 30.3216 99.6527 30.4141 100.036 30.4141C100.421 30.4141 100.75 30.3216 101.024 30.1367C101.3 29.9518 101.511 29.6797 101.657 29.3203C101.805 28.9609 101.879 28.5208 101.879 28ZM108.909 26.3984C108.883 26.112 108.767 25.8893 108.561 25.7305C108.358 25.569 108.068 25.4883 107.69 25.4883C107.44 25.4883 107.232 25.5208 107.065 25.5859C106.899 25.651 106.774 25.7409 106.69 25.8555C106.607 25.9674 106.564 26.0964 106.561 26.2422C106.556 26.362 106.58 26.4674 106.632 26.5586C106.686 26.6497 106.764 26.7305 106.866 26.8008C106.97 26.8685 107.095 26.9284 107.241 26.9805C107.387 27.0326 107.551 27.0781 107.733 27.1172L108.421 27.2734C108.817 27.3594 109.165 27.474 109.468 27.6172C109.772 27.7604 110.027 27.931 110.233 28.1289C110.442 28.3268 110.599 28.5547 110.706 28.8125C110.813 29.0703 110.867 29.3594 110.87 29.6797C110.867 30.1849 110.74 30.6185 110.487 30.9805C110.235 31.3424 109.871 31.6198 109.397 31.8125C108.926 32.0052 108.357 32.1016 107.69 32.1016C107.021 32.1016 106.438 32.0013 105.94 31.8008C105.443 31.6003 105.056 31.2956 104.78 30.8867C104.504 30.4779 104.362 29.9609 104.354 29.3359H106.206C106.221 29.5938 106.29 29.8086 106.413 29.9805C106.535 30.1523 106.703 30.2826 106.917 30.3711C107.133 30.4596 107.383 30.5039 107.667 30.5039C107.927 30.5039 108.149 30.4687 108.331 30.3984C108.516 30.3281 108.658 30.2305 108.757 30.1055C108.856 29.9805 108.906 29.8372 108.909 29.6758C108.906 29.5247 108.86 29.3958 108.768 29.2891C108.677 29.1797 108.537 29.0859 108.346 29.0078C108.159 28.9271 107.919 28.8529 107.628 28.7852L106.792 28.5898C106.099 28.431 105.554 28.1745 105.155 27.8203C104.757 27.4635 104.559 26.9818 104.561 26.375C104.559 25.8802 104.692 25.4466 104.96 25.0742C105.228 24.7018 105.599 24.4115 106.073 24.2031C106.547 23.9948 107.087 23.8906 107.694 23.8906C108.314 23.8906 108.852 23.9961 109.307 24.207C109.766 24.4154 110.121 24.7083 110.374 25.0859C110.626 25.4635 110.755 25.901 110.761 26.3984H108.909Z" fill="#001E50"/>
<path d="M30.6071 15.6786C30.6071 14.1992 31.8069 13 33.2857 13H36.8571C38.3359 13 39.5357 14.1992 39.5357 15.6786V19.25C39.5357 20.7288 38.3359 21.9286 36.8571 21.9286H36.4107V24.1607H44.8929C46.6172 24.1607 48.0179 25.5614 48.0179 27.2857V29.0714H48.4643C49.9431 29.0714 51.1429 30.2712 51.1429 31.75V35.3214C51.1429 36.8002 49.9431 38 48.4643 38H44.8929C43.4141 38 42.2143 36.8002 42.2143 35.3214V31.75C42.2143 30.2712 43.4141 29.0714 44.8929 29.0714H45.3393V27.2857C45.3393 27.0402 45.1384 26.8393 44.8929 26.8393H36.4107V29.0714H36.8571C38.3359 29.0714 39.5357 30.2712 39.5357 31.75V35.3214C39.5357 36.8002 38.3359 38 36.8571 38H33.2857C31.8069 38 30.6071 36.8002 30.6071 35.3214V31.75C30.6071 30.2712 31.8069 29.0714 33.2857 29.0714H33.7321V26.8393H25.25C25.0045 26.8393 24.8036 27.0402 24.8036 27.2857V29.0714H25.25C26.7288 29.0714 27.9286 30.2712 27.9286 31.75V35.3214C27.9286 36.8002 26.7288 38 25.25 38H21.6786C20.1992 38 19 36.8002 19 35.3214V31.75C19 30.2712 20.1992 29.0714 21.6786 29.0714H22.125V27.2857C22.125 25.5614 23.524 24.1607 25.25 24.1607H33.7321V21.9286H33.2857C31.8069 21.9286 30.6071 20.7288 30.6071 19.25V15.6786Z" fill="#3F1055"/>
</svg>
